M48
; DRILL file {KiCad 9.0.2} date 2026-06-10T22:18:12-0400
; FORMAT={-:-/ absolute / metric / decimal}
; #@! TF.CreationDate,2026-06-10T22:18:12-04:00
; #@! TF.GenerationSoftware,Kicad,Pcbnew,9.0.2
; #@! TF.FileFunction,Plated,1,2,PTH
FMAT,2
METRIC
; #@! TA.AperFunction,Plated,PTH,ViaDrill
T1C0.300
; #@! TA.AperFunction,Plated,PTH,ComponentDrill
T2C0.600
%
G90
G05
T1
X67.83Y-71.38
X68.08Y-45.979
X69.0Y-45.97
X70.85Y-71.89
X73.99Y-52.791
X73.99Y-53.641
X75.41Y-72.491
X75.647Y-65.202
X76.497Y-65.202
X77.19Y-60.01
X77.28Y-61.92
X77.36Y-63.73
X80.01Y-72.3
X80.13Y-54.71
X80.56Y-61.12
X80.591Y-61.851
X80.62Y-70.23
X82.091Y-54.293
X91.15Y-55.59
X92.1Y-54.832
X93.47Y-61.12
X96.309Y-55.609
X96.45Y-54.62
X96.53Y-58.92
X97.13Y-60.2
X97.52Y-55.23
X100.21Y-71.94
X100.36Y-52.55
X100.88Y-70.27
X101.1Y-54.49
X103.11Y-71.99
X104.224Y-56.276
X104.48Y-54.83
X106.77Y-56.75
X107.08Y-68.58
X108.34Y-63.38
X108.38Y-52.65
X108.501Y-55.819
X110.337Y-58.718
X110.56Y-61.171
X110.626Y-49.246
X110.63Y-55.82
X111.77Y-60.98
X111.791Y-60.172
X112.17Y-58.64
X112.77Y-57.69
X114.48Y-50.18
T2
G00X63.04Y-42.775
M15
G01X63.04Y-41.975
M16
G05
G00X63.04Y-47.105
M15
G01X63.04Y-46.005
M16
G05
G00X71.68Y-42.775
M15
G01X71.68Y-41.975
M16
G05
G00X71.68Y-47.105
M15
G01X71.68Y-46.005
M16
G05
M30
