%TF.GenerationSoftware,KiCad,Pcbnew,9.0.2*%
%TF.CreationDate,2026-06-10T22:18:06-04:00*%
%TF.ProjectId,hermicles,6865726d-6963-46c6-9573-2e6b69636164,rev?*%
%TF.SameCoordinates,Original*%
%TF.FileFunction,Paste,Top*%
%TF.FilePolarity,Positive*%
%FSLAX46Y46*%
G04 Gerber Fmt 4.6, Leading zero omitted, Abs format (unit mm)*
G04 Created by KiCad (PCBNEW 9.0.2) date 2026-06-10 22:18:06*
%MOMM*%
%LPD*%
G01*
G04 APERTURE LIST*
G04 Aperture macros list*
%AMRoundRect*
0 Rectangle with rounded corners*
0 $1 Rounding radius*
0 $2 $3 $4 $5 $6 $7 $8 $9 X,Y pos of 4 corners*
0 Add a 4 corners polygon primitive as box body*
4,1,4,$2,$3,$4,$5,$6,$7,$8,$9,$2,$3,0*
0 Add four circle primitives for the rounded corners*
1,1,$1+$1,$2,$3*
1,1,$1+$1,$4,$5*
1,1,$1+$1,$6,$7*
1,1,$1+$1,$8,$9*
0 Add four rect primitives between the rounded corners*
20,1,$1+$1,$2,$3,$4,$5,0*
20,1,$1+$1,$4,$5,$6,$7,0*
20,1,$1+$1,$6,$7,$8,$9,0*
20,1,$1+$1,$8,$9,$2,$3,0*%
G04 Aperture macros list end*
%ADD10C,0.010000*%
%ADD11R,0.800000X0.400000*%
%ADD12R,0.400000X0.800000*%
%ADD13R,1.450000X1.450000*%
%ADD14R,0.700000X0.700000*%
%ADD15RoundRect,0.147500X-0.147500X-0.172500X0.147500X-0.172500X0.147500X0.172500X-0.147500X0.172500X0*%
%ADD16RoundRect,0.150000X0.150000X0.425000X-0.150000X0.425000X-0.150000X-0.425000X0.150000X-0.425000X0*%
%ADD17RoundRect,0.075000X0.075000X0.500000X-0.075000X0.500000X-0.075000X-0.500000X0.075000X-0.500000X0*%
%ADD18O,1.000000X2.100000*%
%ADD19O,1.000000X1.800000*%
%ADD20RoundRect,0.250000X-0.250000X-0.475000X0.250000X-0.475000X0.250000X0.475000X-0.250000X0.475000X0*%
%ADD21RoundRect,0.250000X-0.250000X-1.500000X0.250000X-1.500000X0.250000X1.500000X-0.250000X1.500000X0*%
%ADD22RoundRect,0.250001X-0.499999X-1.449999X0.499999X-1.449999X0.499999X1.449999X-0.499999X1.449999X0*%
%ADD23RoundRect,0.135000X-0.135000X-0.185000X0.135000X-0.185000X0.135000X0.185000X-0.135000X0.185000X0*%
%ADD24R,0.900000X0.250000*%
%ADD25R,0.250000X0.900000*%
%ADD26RoundRect,0.150000X-0.512500X-0.150000X0.512500X-0.150000X0.512500X0.150000X-0.512500X0.150000X0*%
%ADD27RoundRect,0.140000X-0.140000X-0.170000X0.140000X-0.170000X0.140000X0.170000X-0.140000X0.170000X0*%
%ADD28RoundRect,0.135000X0.135000X0.185000X-0.135000X0.185000X-0.135000X-0.185000X0.135000X-0.185000X0*%
%ADD29R,1.800000X1.100000*%
%ADD30RoundRect,0.375000X-0.625000X-0.375000X0.625000X-0.375000X0.625000X0.375000X-0.625000X0.375000X0*%
%ADD31RoundRect,0.500000X-0.500000X-1.400000X0.500000X-1.400000X0.500000X1.400000X-0.500000X1.400000X0*%
G04 APERTURE END LIST*
D10*
%TO.C,U4*%
X67260000Y-66580000D02*
X65810000Y-66580000D01*
X65810000Y-65730000D01*
X66410000Y-65130000D01*
X67260000Y-65130000D01*
X67260000Y-66580000D01*
G36*
X67260000Y-66580000D02*
G01*
X65810000Y-66580000D01*
X65810000Y-65730000D01*
X66410000Y-65130000D01*
X67260000Y-65130000D01*
X67260000Y-66580000D01*
G37*
%TD*%
D11*
%TO.C,U4*%
X62610000Y-63830000D03*
X62610000Y-64630000D03*
X62610000Y-65430000D03*
X62610000Y-66230000D03*
X62610000Y-67030000D03*
X62610000Y-67830000D03*
X62610000Y-68630000D03*
X62610000Y-69430000D03*
X62610000Y-70230000D03*
X62610000Y-71030000D03*
X62610000Y-71830000D03*
D12*
X63710000Y-72730000D03*
X64510000Y-72730000D03*
X65310000Y-72730000D03*
X66110000Y-72730000D03*
X66910000Y-72730000D03*
X67710000Y-72730000D03*
X68510000Y-72730000D03*
X69310000Y-72730000D03*
X70110000Y-72730000D03*
X70910000Y-72730000D03*
X71710000Y-72730000D03*
X72510000Y-72730000D03*
X73310000Y-72730000D03*
D11*
X74410000Y-71830000D03*
X74410000Y-71030000D03*
X74410000Y-70230000D03*
X74410000Y-69430000D03*
X74410000Y-68630000D03*
X74410000Y-67830000D03*
X74410000Y-67030000D03*
X74410000Y-66230000D03*
X74410000Y-65430000D03*
X74410000Y-64630000D03*
X74410000Y-63830000D03*
D12*
X73310000Y-62930000D03*
X72510000Y-62930000D03*
X71710000Y-62930000D03*
X70910000Y-62930000D03*
X70110000Y-62930000D03*
X69310000Y-62930000D03*
X68510000Y-62930000D03*
X67710000Y-62930000D03*
X66910000Y-62930000D03*
X66110000Y-62930000D03*
X65310000Y-62930000D03*
X64510000Y-62930000D03*
X63710000Y-62930000D03*
D13*
X68510000Y-65855000D03*
X70485000Y-65855000D03*
X70485000Y-67830000D03*
X70485000Y-69805000D03*
X68510000Y-69805000D03*
X66535000Y-69805000D03*
X66535000Y-67830000D03*
X68510000Y-67830000D03*
D14*
X74460000Y-62880000D03*
X74460000Y-72780000D03*
X62560000Y-72780000D03*
X62560000Y-62880000D03*
%TD*%
D15*
%TO.C,D1*%
X109830000Y-41870000D03*
X110800000Y-41870000D03*
%TD*%
D16*
%TO.C,J1*%
X70560000Y-47130000D03*
X69760000Y-47130000D03*
D17*
X68610000Y-47130000D03*
X67610000Y-47130000D03*
X67110000Y-47130000D03*
X66110000Y-47130000D03*
D16*
X64960000Y-47130000D03*
X64160000Y-47130000D03*
X64160000Y-47130000D03*
X64960000Y-47130000D03*
D17*
X65610000Y-47130000D03*
X66610000Y-47130000D03*
X68110000Y-47130000D03*
X69110000Y-47130000D03*
D16*
X69760000Y-47130000D03*
X70560000Y-47130000D03*
D18*
X71680000Y-46555000D03*
D19*
X71680000Y-42375000D03*
D18*
X63040000Y-46555000D03*
D19*
X63040000Y-42375000D03*
%TD*%
D20*
%TO.C,C8*%
X85850000Y-62970000D03*
X87750000Y-62970000D03*
%TD*%
D21*
%TO.C,J2*%
X90250000Y-43560000D03*
X92250000Y-43560000D03*
D22*
X87900000Y-49310000D03*
X94600000Y-49310000D03*
%TD*%
D23*
%TO.C,R4*%
X62300000Y-75980000D03*
X63320000Y-75980000D03*
%TD*%
%TO.C,R3*%
X111570000Y-50090000D03*
X112590000Y-50090000D03*
%TD*%
D24*
%TO.C,U2*%
X109200000Y-62360000D03*
X109200000Y-62860000D03*
X109200000Y-63360000D03*
X109200000Y-63860000D03*
D25*
X110050000Y-64210000D03*
X110550000Y-64210000D03*
X111050000Y-64210000D03*
D24*
X111900000Y-63860000D03*
X111900000Y-63360000D03*
X111900000Y-62860000D03*
X111900000Y-62360000D03*
D25*
X111050000Y-62010000D03*
X110550000Y-62010000D03*
X110050000Y-62010000D03*
%TD*%
D23*
%TO.C,R2*%
X102710000Y-55610000D03*
X103730000Y-55610000D03*
%TD*%
D26*
%TO.C,U5*%
X110265000Y-56890000D03*
X110265000Y-57840000D03*
X110265000Y-58790000D03*
X112540000Y-58790000D03*
X112540000Y-57840000D03*
X112540000Y-56890000D03*
%TD*%
D20*
%TO.C,C6*%
X91150000Y-55590000D03*
X93050000Y-55590000D03*
%TD*%
D27*
%TO.C,C3*%
X79410000Y-71440000D03*
X80370000Y-71440000D03*
%TD*%
D23*
%TO.C,R1*%
X104540000Y-51250000D03*
X105560000Y-51250000D03*
%TD*%
D28*
%TO.C,R5*%
X78160000Y-53620000D03*
X77140000Y-53620000D03*
%TD*%
D29*
%TO.C,SW1*%
X100280000Y-42290000D03*
X106480000Y-42290000D03*
X100280000Y-45990000D03*
X106480000Y-45990000D03*
%TD*%
D20*
%TO.C,C9*%
X93880000Y-63690000D03*
X95780000Y-63690000D03*
%TD*%
D23*
%TO.C,R8*%
X117690000Y-52370000D03*
X118710000Y-52370000D03*
%TD*%
D20*
%TO.C,C7*%
X79090000Y-63690000D03*
X80990000Y-63690000D03*
%TD*%
D23*
%TO.C,R7*%
X92260000Y-71940000D03*
X93280000Y-71940000D03*
%TD*%
D15*
%TO.C,D2*%
X114272500Y-41800000D03*
X115242500Y-41800000D03*
%TD*%
D23*
%TO.C,R6*%
X100800000Y-72040000D03*
X101820000Y-72040000D03*
%TD*%
D30*
%TO.C,U3*%
X75860000Y-43220000D03*
X75860000Y-45520000D03*
X75860000Y-47820000D03*
D31*
X82160000Y-45520000D03*
%TD*%
D27*
%TO.C,C1*%
X97740000Y-52680000D03*
X98700000Y-52680000D03*
%TD*%
D20*
%TO.C,C2*%
X81580000Y-56530000D03*
X83480000Y-56530000D03*
%TD*%
M02*
