%TF.GenerationSoftware,KiCad,Pcbnew,9.0.2*%
%TF.CreationDate,2026-06-10T22:18:06-04:00*%
%TF.ProjectId,hermicles,6865726d-6963-46c6-9573-2e6b69636164,rev?*%
%TF.SameCoordinates,Original*%
%TF.FileFunction,Legend,Top*%
%TF.FilePolarity,Positive*%
%FSLAX46Y46*%
G04 Gerber Fmt 4.6, Leading zero omitted, Abs format (unit mm)*
G04 Created by KiCad (PCBNEW 9.0.2) date 2026-06-10 22:18:06*
%MOMM*%
%LPD*%
G01*
G04 APERTURE LIST*
%ADD10C,0.100000*%
%ADD11C,0.150000*%
%ADD12C,0.000000*%
%ADD13C,0.127000*%
%ADD14C,0.200000*%
%ADD15C,0.120000*%
G04 APERTURE END LIST*
D10*
X132340745Y-66321742D02*
X132473000Y-66249739D01*
X132473000Y-66249739D02*
X132540302Y-66247389D01*
X132540302Y-66247389D02*
X132642431Y-66277514D01*
X132642431Y-66277514D02*
X132746910Y-66374943D01*
X132746910Y-66374943D02*
X132784087Y-66474721D01*
X132784087Y-66474721D02*
X132786437Y-66542024D01*
X132786437Y-66542024D02*
X132756311Y-66644153D01*
X132756311Y-66644153D02*
X132496502Y-66922764D01*
X132496502Y-66922764D02*
X131765149Y-66240765D01*
X131765149Y-66240765D02*
X131992481Y-65996981D01*
X131992481Y-65996981D02*
X132092260Y-65959804D01*
X132092260Y-65959804D02*
X132159562Y-65957454D01*
X132159562Y-65957454D02*
X132261691Y-65987580D01*
X132261691Y-65987580D02*
X132331344Y-66052532D01*
X132331344Y-66052532D02*
X132368521Y-66152311D01*
X132368521Y-66152311D02*
X132370871Y-66219613D01*
X132370871Y-66219613D02*
X132340745Y-66321742D01*
X132340745Y-66321742D02*
X132113412Y-66565526D01*
X132937066Y-66031380D02*
X133261827Y-65683116D01*
X133081072Y-66295889D02*
X132577051Y-65370106D01*
X132577051Y-65370106D02*
X133535738Y-65808320D01*
X132934289Y-64987016D02*
X133324002Y-64569100D01*
X133860499Y-65460056D02*
X133129145Y-64778058D01*
X133453907Y-64429794D02*
X133843620Y-64011878D01*
X134380117Y-64902834D02*
X133648763Y-64220836D01*
X134419217Y-64092854D02*
X134646549Y-63849069D01*
X135127068Y-64101827D02*
X134802307Y-64450091D01*
X134802307Y-64450091D02*
X134070953Y-63768093D01*
X134070953Y-63768093D02*
X134395714Y-63419829D01*
X135809066Y-63370474D02*
X135233470Y-63289497D01*
X135419353Y-63788390D02*
X134687999Y-63106392D01*
X134687999Y-63106392D02*
X134947808Y-62827781D01*
X134947808Y-62827781D02*
X135047587Y-62790604D01*
X135047587Y-62790604D02*
X135114889Y-62788254D01*
X135114889Y-62788254D02*
X135217018Y-62818380D01*
X135217018Y-62818380D02*
X135321497Y-62915808D01*
X135321497Y-62915808D02*
X135358674Y-63015587D01*
X135358674Y-63015587D02*
X135361024Y-63082889D01*
X135361024Y-63082889D02*
X135330898Y-63185018D01*
X135330898Y-63185018D02*
X135071089Y-63463629D01*
X135882992Y-62592970D02*
X136231256Y-62917731D01*
X135272569Y-62479517D02*
X135882992Y-62592970D01*
X135882992Y-62592970D02*
X135727235Y-61991948D01*
X136866249Y-60840327D02*
X136766471Y-60877504D01*
X136766471Y-60877504D02*
X136669042Y-60981983D01*
X136669042Y-60981983D02*
X136606440Y-61118938D01*
X136606440Y-61118938D02*
X136611141Y-61253543D01*
X136611141Y-61253543D02*
X136648317Y-61353322D01*
X136648317Y-61353322D02*
X136755147Y-61518053D01*
X136755147Y-61518053D02*
X136859626Y-61615481D01*
X136859626Y-61615481D02*
X137031407Y-61710559D01*
X137031407Y-61710559D02*
X137133536Y-61740685D01*
X137133536Y-61740685D02*
X137268141Y-61735984D01*
X137268141Y-61735984D02*
X137400396Y-61663981D01*
X137400396Y-61663981D02*
X137465348Y-61594329D01*
X137465348Y-61594329D02*
X137527950Y-61457374D01*
X137527950Y-61457374D02*
X137525600Y-61390071D01*
X137525600Y-61390071D02*
X137281815Y-61162738D01*
X137281815Y-61162738D02*
X137151911Y-61302044D01*
X137286088Y-60320282D02*
X137415993Y-60180977D01*
X137415993Y-60180977D02*
X137515771Y-60143800D01*
X137515771Y-60143800D02*
X137650376Y-60139100D01*
X137650376Y-60139100D02*
X137822158Y-60234178D01*
X137822158Y-60234178D02*
X138065943Y-60461510D01*
X138065943Y-60461510D02*
X138172772Y-60626241D01*
X138172772Y-60626241D02*
X138177472Y-60760846D01*
X138177472Y-60760846D02*
X138147347Y-60862975D01*
X138147347Y-60862975D02*
X138017442Y-61002280D01*
X138017442Y-61002280D02*
X137917664Y-61039457D01*
X137917664Y-61039457D02*
X137783059Y-61044158D01*
X137783059Y-61044158D02*
X137611277Y-60949080D01*
X137611277Y-60949080D02*
X137367492Y-60721747D01*
X137367492Y-60721747D02*
X137260663Y-60557016D01*
X137260663Y-60557016D02*
X137255963Y-60422411D01*
X137255963Y-60422411D02*
X137286088Y-60320282D01*
X138218922Y-60018169D02*
X138446255Y-59774384D01*
X138926773Y-60027142D02*
X138602012Y-60375406D01*
X138602012Y-60375406D02*
X137870658Y-59693408D01*
X137870658Y-59693408D02*
X138195420Y-59345144D01*
X139151756Y-59716055D02*
X139284011Y-59644052D01*
X139284011Y-59644052D02*
X139446391Y-59469920D01*
X139446391Y-59469920D02*
X139476517Y-59367791D01*
X139476517Y-59367791D02*
X139474167Y-59300489D01*
X139474167Y-59300489D02*
X139436990Y-59200710D01*
X139436990Y-59200710D02*
X139367337Y-59135758D01*
X139367337Y-59135758D02*
X139265208Y-59105632D01*
X139265208Y-59105632D02*
X139197906Y-59107983D01*
X139197906Y-59107983D02*
X139098127Y-59145159D01*
X139098127Y-59145159D02*
X138933397Y-59251989D01*
X138933397Y-59251989D02*
X138833618Y-59289165D01*
X138833618Y-59289165D02*
X138766316Y-59291515D01*
X138766316Y-59291515D02*
X138664187Y-59261390D01*
X138664187Y-59261390D02*
X138594534Y-59196437D01*
X138594534Y-59196437D02*
X138557357Y-59096659D01*
X138557357Y-59096659D02*
X138555007Y-59029356D01*
X138555007Y-59029356D02*
X138585133Y-58927227D01*
X138585133Y-58927227D02*
X138747513Y-58753096D01*
X138747513Y-58753096D02*
X138879768Y-58681093D01*
X140388199Y-58459955D02*
X139656845Y-57777957D01*
X140005108Y-58102718D02*
X140394822Y-57684802D01*
X140777912Y-58042039D02*
X140046558Y-57360041D01*
X140719583Y-57336538D02*
X140946916Y-57092754D01*
X141427434Y-57345512D02*
X141102673Y-57693775D01*
X141102673Y-57693775D02*
X140371319Y-57011777D01*
X140371319Y-57011777D02*
X140696080Y-56663513D01*
X142109433Y-56614158D02*
X141533836Y-56533181D01*
X141719719Y-57032074D02*
X140988365Y-56350076D01*
X140988365Y-56350076D02*
X141248174Y-56071465D01*
X141248174Y-56071465D02*
X141347953Y-56034288D01*
X141347953Y-56034288D02*
X141415255Y-56031938D01*
X141415255Y-56031938D02*
X141517384Y-56062064D01*
X141517384Y-56062064D02*
X141621863Y-56159492D01*
X141621863Y-56159492D02*
X141659040Y-56259271D01*
X141659040Y-56259271D02*
X141661390Y-56326573D01*
X141661390Y-56326573D02*
X141631264Y-56428702D01*
X141631264Y-56428702D02*
X141371456Y-56707313D01*
X142018627Y-55943483D02*
X142245960Y-55699699D01*
X142726479Y-55952457D02*
X142401718Y-56300721D01*
X142401718Y-56300721D02*
X141670364Y-55618722D01*
X141670364Y-55618722D02*
X141995125Y-55270459D01*
X143382624Y-54480776D02*
X143514879Y-54408773D01*
X143514879Y-54408773D02*
X143582182Y-54406423D01*
X143582182Y-54406423D02*
X143684310Y-54436548D01*
X143684310Y-54436548D02*
X143788790Y-54533977D01*
X143788790Y-54533977D02*
X143825966Y-54633755D01*
X143825966Y-54633755D02*
X143828316Y-54701058D01*
X143828316Y-54701058D02*
X143798191Y-54803187D01*
X143798191Y-54803187D02*
X143538382Y-55081798D01*
X143538382Y-55081798D02*
X142807028Y-54399799D01*
X142807028Y-54399799D02*
X143034361Y-54156015D01*
X143034361Y-54156015D02*
X143134139Y-54118838D01*
X143134139Y-54118838D02*
X143201442Y-54116488D01*
X143201442Y-54116488D02*
X143303571Y-54146614D01*
X143303571Y-54146614D02*
X143373223Y-54211566D01*
X143373223Y-54211566D02*
X143410400Y-54311344D01*
X143410400Y-54311344D02*
X143412750Y-54378647D01*
X143412750Y-54378647D02*
X143382624Y-54480776D01*
X143382624Y-54480776D02*
X143155292Y-54724560D01*
X143489026Y-53668446D02*
X144081075Y-54220539D01*
X144081075Y-54220539D02*
X144183203Y-54250665D01*
X144183203Y-54250665D02*
X144250506Y-54248315D01*
X144250506Y-54248315D02*
X144350285Y-54211138D01*
X144350285Y-54211138D02*
X144480189Y-54071833D01*
X144480189Y-54071833D02*
X144510315Y-53969704D01*
X144510315Y-53969704D02*
X144507965Y-53902402D01*
X144507965Y-53902402D02*
X144470788Y-53802623D01*
X144470788Y-53802623D02*
X143878740Y-53250529D01*
X144934854Y-53584264D02*
X144203501Y-52902266D01*
X144203501Y-52902266D02*
X144365881Y-52728134D01*
X144365881Y-52728134D02*
X144498136Y-52656131D01*
X144498136Y-52656131D02*
X144632741Y-52651430D01*
X144632741Y-52651430D02*
X144734870Y-52681556D01*
X144734870Y-52681556D02*
X144906651Y-52776634D01*
X144906651Y-52776634D02*
X145011131Y-52874062D01*
X145011131Y-52874062D02*
X145117960Y-53038793D01*
X145117960Y-53038793D02*
X145155137Y-53138572D01*
X145155137Y-53138572D02*
X145159837Y-53273177D01*
X145159837Y-53273177D02*
X145097235Y-53410132D01*
X145097235Y-53410132D02*
X144934854Y-53584264D01*
X151980000Y-76040000D02*
X156000000Y-76040000D01*
X156000000Y-72000000D02*
X156000000Y-76040000D01*
X120960000Y-71970000D02*
X120960000Y-75990000D01*
X125000000Y-75990000D02*
X120960000Y-75990000D01*
X155950000Y-48000000D02*
X155950000Y-43980000D01*
X151910000Y-43980000D02*
X155950000Y-43980000D01*
X125030000Y-43970000D02*
X121010000Y-43970000D01*
X121010000Y-48010000D02*
X121010000Y-43970000D01*
X119750000Y-42690000D02*
X157470000Y-42690000D01*
X157470000Y-77030000D01*
X119750000Y-77030000D01*
X119750000Y-42690000D01*
X148903884Y-41772419D02*
X148903884Y-41105752D01*
X148903884Y-41296228D02*
X148951503Y-41200990D01*
X148951503Y-41200990D02*
X148999122Y-41153371D01*
X148999122Y-41153371D02*
X149094360Y-41105752D01*
X149094360Y-41105752D02*
X149189598Y-41105752D01*
X149951503Y-41772419D02*
X149951503Y-41248609D01*
X149951503Y-41248609D02*
X149903884Y-41153371D01*
X149903884Y-41153371D02*
X149808646Y-41105752D01*
X149808646Y-41105752D02*
X149618170Y-41105752D01*
X149618170Y-41105752D02*
X149522932Y-41153371D01*
X149951503Y-41724800D02*
X149856265Y-41772419D01*
X149856265Y-41772419D02*
X149618170Y-41772419D01*
X149618170Y-41772419D02*
X149522932Y-41724800D01*
X149522932Y-41724800D02*
X149475313Y-41629561D01*
X149475313Y-41629561D02*
X149475313Y-41534323D01*
X149475313Y-41534323D02*
X149522932Y-41439085D01*
X149522932Y-41439085D02*
X149618170Y-41391466D01*
X149618170Y-41391466D02*
X149856265Y-41391466D01*
X149856265Y-41391466D02*
X149951503Y-41343847D01*
X150856265Y-41105752D02*
X150856265Y-41915276D01*
X150856265Y-41915276D02*
X150808646Y-42010514D01*
X150808646Y-42010514D02*
X150761027Y-42058133D01*
X150761027Y-42058133D02*
X150665789Y-42105752D01*
X150665789Y-42105752D02*
X150522932Y-42105752D01*
X150522932Y-42105752D02*
X150427694Y-42058133D01*
X150856265Y-41724800D02*
X150761027Y-41772419D01*
X150761027Y-41772419D02*
X150570551Y-41772419D01*
X150570551Y-41772419D02*
X150475313Y-41724800D01*
X150475313Y-41724800D02*
X150427694Y-41677180D01*
X150427694Y-41677180D02*
X150380075Y-41581942D01*
X150380075Y-41581942D02*
X150380075Y-41296228D01*
X150380075Y-41296228D02*
X150427694Y-41200990D01*
X150427694Y-41200990D02*
X150475313Y-41153371D01*
X150475313Y-41153371D02*
X150570551Y-41105752D01*
X150570551Y-41105752D02*
X150761027Y-41105752D01*
X150761027Y-41105752D02*
X150856265Y-41153371D01*
X151332456Y-41772419D02*
X151332456Y-40772419D01*
X151761027Y-41772419D02*
X151761027Y-41248609D01*
X151761027Y-41248609D02*
X151713408Y-41153371D01*
X151713408Y-41153371D02*
X151618170Y-41105752D01*
X151618170Y-41105752D02*
X151475313Y-41105752D01*
X151475313Y-41105752D02*
X151380075Y-41153371D01*
X151380075Y-41153371D02*
X151332456Y-41200990D01*
X152665789Y-41772419D02*
X152665789Y-41248609D01*
X152665789Y-41248609D02*
X152618170Y-41153371D01*
X152618170Y-41153371D02*
X152522932Y-41105752D01*
X152522932Y-41105752D02*
X152332456Y-41105752D01*
X152332456Y-41105752D02*
X152237218Y-41153371D01*
X152665789Y-41724800D02*
X152570551Y-41772419D01*
X152570551Y-41772419D02*
X152332456Y-41772419D01*
X152332456Y-41772419D02*
X152237218Y-41724800D01*
X152237218Y-41724800D02*
X152189599Y-41629561D01*
X152189599Y-41629561D02*
X152189599Y-41534323D01*
X152189599Y-41534323D02*
X152237218Y-41439085D01*
X152237218Y-41439085D02*
X152332456Y-41391466D01*
X152332456Y-41391466D02*
X152570551Y-41391466D01*
X152570551Y-41391466D02*
X152665789Y-41343847D01*
X153046742Y-41105752D02*
X153284837Y-41772419D01*
X153284837Y-41772419D02*
X153522932Y-41105752D01*
X153903885Y-41677180D02*
X153951504Y-41724800D01*
X153951504Y-41724800D02*
X153903885Y-41772419D01*
X153903885Y-41772419D02*
X153856266Y-41724800D01*
X153856266Y-41724800D02*
X153903885Y-41677180D01*
X153903885Y-41677180D02*
X153903885Y-41772419D01*
X154237218Y-41105752D02*
X154618170Y-41105752D01*
X154380075Y-41772419D02*
X154380075Y-40915276D01*
X154380075Y-40915276D02*
X154427694Y-40820038D01*
X154427694Y-40820038D02*
X154522932Y-40772419D01*
X154522932Y-40772419D02*
X154618170Y-40772419D01*
X154951504Y-41772419D02*
X154951504Y-41105752D01*
X154951504Y-40772419D02*
X154903885Y-40820038D01*
X154903885Y-40820038D02*
X154951504Y-40867657D01*
X154951504Y-40867657D02*
X154999123Y-40820038D01*
X154999123Y-40820038D02*
X154951504Y-40772419D01*
X154951504Y-40772419D02*
X154951504Y-40867657D01*
X155284837Y-41105752D02*
X155665789Y-41105752D01*
X155427694Y-40772419D02*
X155427694Y-41629561D01*
X155427694Y-41629561D02*
X155475313Y-41724800D01*
X155475313Y-41724800D02*
X155570551Y-41772419D01*
X155570551Y-41772419D02*
X155665789Y-41772419D01*
X65161027Y-76702419D02*
X65732455Y-76702419D01*
X65446741Y-77702419D02*
X65446741Y-76702419D01*
X66065789Y-77702419D02*
X66065789Y-76702419D01*
X66065789Y-77178609D02*
X66637217Y-77178609D01*
X66637217Y-77702419D02*
X66637217Y-76702419D01*
X67113408Y-77702419D02*
X67113408Y-76702419D01*
X67541979Y-77654800D02*
X67684836Y-77702419D01*
X67684836Y-77702419D02*
X67922931Y-77702419D01*
X67922931Y-77702419D02*
X68018169Y-77654800D01*
X68018169Y-77654800D02*
X68065788Y-77607180D01*
X68065788Y-77607180D02*
X68113407Y-77511942D01*
X68113407Y-77511942D02*
X68113407Y-77416704D01*
X68113407Y-77416704D02*
X68065788Y-77321466D01*
X68065788Y-77321466D02*
X68018169Y-77273847D01*
X68018169Y-77273847D02*
X67922931Y-77226228D01*
X67922931Y-77226228D02*
X67732455Y-77178609D01*
X67732455Y-77178609D02*
X67637217Y-77130990D01*
X67637217Y-77130990D02*
X67589598Y-77083371D01*
X67589598Y-77083371D02*
X67541979Y-76988133D01*
X67541979Y-76988133D02*
X67541979Y-76892895D01*
X67541979Y-76892895D02*
X67589598Y-76797657D01*
X67589598Y-76797657D02*
X67637217Y-76750038D01*
X67637217Y-76750038D02*
X67732455Y-76702419D01*
X67732455Y-76702419D02*
X67970550Y-76702419D01*
X67970550Y-76702419D02*
X68113407Y-76750038D01*
X69303884Y-77702419D02*
X69303884Y-76702419D01*
X69732455Y-77654800D02*
X69875312Y-77702419D01*
X69875312Y-77702419D02*
X70113407Y-77702419D01*
X70113407Y-77702419D02*
X70208645Y-77654800D01*
X70208645Y-77654800D02*
X70256264Y-77607180D01*
X70256264Y-77607180D02*
X70303883Y-77511942D01*
X70303883Y-77511942D02*
X70303883Y-77416704D01*
X70303883Y-77416704D02*
X70256264Y-77321466D01*
X70256264Y-77321466D02*
X70208645Y-77273847D01*
X70208645Y-77273847D02*
X70113407Y-77226228D01*
X70113407Y-77226228D02*
X69922931Y-77178609D01*
X69922931Y-77178609D02*
X69827693Y-77130990D01*
X69827693Y-77130990D02*
X69780074Y-77083371D01*
X69780074Y-77083371D02*
X69732455Y-76988133D01*
X69732455Y-76988133D02*
X69732455Y-76892895D01*
X69732455Y-76892895D02*
X69780074Y-76797657D01*
X69780074Y-76797657D02*
X69827693Y-76750038D01*
X69827693Y-76750038D02*
X69922931Y-76702419D01*
X69922931Y-76702419D02*
X70161026Y-76702419D01*
X70161026Y-76702419D02*
X70303883Y-76750038D01*
X71494360Y-77702419D02*
X71494360Y-76702419D01*
X71494360Y-76702419D02*
X72065788Y-77702419D01*
X72065788Y-77702419D02*
X72065788Y-76702419D01*
X72732455Y-76702419D02*
X72922931Y-76702419D01*
X72922931Y-76702419D02*
X73018169Y-76750038D01*
X73018169Y-76750038D02*
X73113407Y-76845276D01*
X73113407Y-76845276D02*
X73161026Y-77035752D01*
X73161026Y-77035752D02*
X73161026Y-77369085D01*
X73161026Y-77369085D02*
X73113407Y-77559561D01*
X73113407Y-77559561D02*
X73018169Y-77654800D01*
X73018169Y-77654800D02*
X72922931Y-77702419D01*
X72922931Y-77702419D02*
X72732455Y-77702419D01*
X72732455Y-77702419D02*
X72637217Y-77654800D01*
X72637217Y-77654800D02*
X72541979Y-77559561D01*
X72541979Y-77559561D02*
X72494360Y-77369085D01*
X72494360Y-77369085D02*
X72494360Y-77035752D01*
X72494360Y-77035752D02*
X72541979Y-76845276D01*
X72541979Y-76845276D02*
X72637217Y-76750038D01*
X72637217Y-76750038D02*
X72732455Y-76702419D01*
X73446741Y-76702419D02*
X74018169Y-76702419D01*
X73732455Y-77702419D02*
X73732455Y-76702419D01*
X75065789Y-77416704D02*
X75541979Y-77416704D01*
X74970551Y-77702419D02*
X75303884Y-76702419D01*
X75303884Y-76702419D02*
X75637217Y-77702419D01*
X77065789Y-77178609D02*
X77208646Y-77226228D01*
X77208646Y-77226228D02*
X77256265Y-77273847D01*
X77256265Y-77273847D02*
X77303884Y-77369085D01*
X77303884Y-77369085D02*
X77303884Y-77511942D01*
X77303884Y-77511942D02*
X77256265Y-77607180D01*
X77256265Y-77607180D02*
X77208646Y-77654800D01*
X77208646Y-77654800D02*
X77113408Y-77702419D01*
X77113408Y-77702419D02*
X76732456Y-77702419D01*
X76732456Y-77702419D02*
X76732456Y-76702419D01*
X76732456Y-76702419D02*
X77065789Y-76702419D01*
X77065789Y-76702419D02*
X77161027Y-76750038D01*
X77161027Y-76750038D02*
X77208646Y-76797657D01*
X77208646Y-76797657D02*
X77256265Y-76892895D01*
X77256265Y-76892895D02*
X77256265Y-76988133D01*
X77256265Y-76988133D02*
X77208646Y-77083371D01*
X77208646Y-77083371D02*
X77161027Y-77130990D01*
X77161027Y-77130990D02*
X77065789Y-77178609D01*
X77065789Y-77178609D02*
X76732456Y-77178609D01*
X77922932Y-76702419D02*
X78113408Y-76702419D01*
X78113408Y-76702419D02*
X78208646Y-76750038D01*
X78208646Y-76750038D02*
X78303884Y-76845276D01*
X78303884Y-76845276D02*
X78351503Y-77035752D01*
X78351503Y-77035752D02*
X78351503Y-77369085D01*
X78351503Y-77369085D02*
X78303884Y-77559561D01*
X78303884Y-77559561D02*
X78208646Y-77654800D01*
X78208646Y-77654800D02*
X78113408Y-77702419D01*
X78113408Y-77702419D02*
X77922932Y-77702419D01*
X77922932Y-77702419D02*
X77827694Y-77654800D01*
X77827694Y-77654800D02*
X77732456Y-77559561D01*
X77732456Y-77559561D02*
X77684837Y-77369085D01*
X77684837Y-77369085D02*
X77684837Y-77035752D01*
X77684837Y-77035752D02*
X77732456Y-76845276D01*
X77732456Y-76845276D02*
X77827694Y-76750038D01*
X77827694Y-76750038D02*
X77922932Y-76702419D01*
X78780075Y-77702419D02*
X78780075Y-76702419D01*
X78780075Y-76702419D02*
X79113408Y-77416704D01*
X79113408Y-77416704D02*
X79446741Y-76702419D01*
X79446741Y-76702419D02*
X79446741Y-77702419D01*
X80256265Y-77178609D02*
X80399122Y-77226228D01*
X80399122Y-77226228D02*
X80446741Y-77273847D01*
X80446741Y-77273847D02*
X80494360Y-77369085D01*
X80494360Y-77369085D02*
X80494360Y-77511942D01*
X80494360Y-77511942D02*
X80446741Y-77607180D01*
X80446741Y-77607180D02*
X80399122Y-77654800D01*
X80399122Y-77654800D02*
X80303884Y-77702419D01*
X80303884Y-77702419D02*
X79922932Y-77702419D01*
X79922932Y-77702419D02*
X79922932Y-76702419D01*
X79922932Y-76702419D02*
X80256265Y-76702419D01*
X80256265Y-76702419D02*
X80351503Y-76750038D01*
X80351503Y-76750038D02*
X80399122Y-76797657D01*
X80399122Y-76797657D02*
X80446741Y-76892895D01*
X80446741Y-76892895D02*
X80446741Y-76988133D01*
X80446741Y-76988133D02*
X80399122Y-77083371D01*
X80399122Y-77083371D02*
X80351503Y-77130990D01*
X80351503Y-77130990D02*
X80256265Y-77178609D01*
X80256265Y-77178609D02*
X79922932Y-77178609D01*
D11*
X64073095Y-54949819D02*
X64073095Y-55759342D01*
X64073095Y-55759342D02*
X64120714Y-55854580D01*
X64120714Y-55854580D02*
X64168333Y-55902200D01*
X64168333Y-55902200D02*
X64263571Y-55949819D01*
X64263571Y-55949819D02*
X64454047Y-55949819D01*
X64454047Y-55949819D02*
X64549285Y-55902200D01*
X64549285Y-55902200D02*
X64596904Y-55854580D01*
X64596904Y-55854580D02*
X64644523Y-55759342D01*
X64644523Y-55759342D02*
X64644523Y-54949819D01*
X65549285Y-55283152D02*
X65549285Y-55949819D01*
X65311190Y-54902200D02*
X65073095Y-55616485D01*
X65073095Y-55616485D02*
X65692142Y-55616485D01*
X109576905Y-41154819D02*
X109576905Y-40154819D01*
X109576905Y-40154819D02*
X109815000Y-40154819D01*
X109815000Y-40154819D02*
X109957857Y-40202438D01*
X109957857Y-40202438D02*
X110053095Y-40297676D01*
X110053095Y-40297676D02*
X110100714Y-40392914D01*
X110100714Y-40392914D02*
X110148333Y-40583390D01*
X110148333Y-40583390D02*
X110148333Y-40726247D01*
X110148333Y-40726247D02*
X110100714Y-40916723D01*
X110100714Y-40916723D02*
X110053095Y-41011961D01*
X110053095Y-41011961D02*
X109957857Y-41107200D01*
X109957857Y-41107200D02*
X109815000Y-41154819D01*
X109815000Y-41154819D02*
X109576905Y-41154819D01*
X111100714Y-41154819D02*
X110529286Y-41154819D01*
X110815000Y-41154819D02*
X110815000Y-40154819D01*
X110815000Y-40154819D02*
X110719762Y-40297676D01*
X110719762Y-40297676D02*
X110624524Y-40392914D01*
X110624524Y-40392914D02*
X110529286Y-40440533D01*
X67693333Y-49495180D02*
X67693333Y-48780895D01*
X67693333Y-48780895D02*
X67740952Y-48638038D01*
X67740952Y-48638038D02*
X67836190Y-48542800D01*
X67836190Y-48542800D02*
X67979047Y-48495180D01*
X67979047Y-48495180D02*
X68074285Y-48495180D01*
X66693333Y-48495180D02*
X67264761Y-48495180D01*
X66979047Y-48495180D02*
X66979047Y-49495180D01*
X66979047Y-49495180D02*
X67074285Y-49352323D01*
X67074285Y-49352323D02*
X67169523Y-49257085D01*
X67169523Y-49257085D02*
X67264761Y-49209466D01*
X86633333Y-61649580D02*
X86585714Y-61697200D01*
X86585714Y-61697200D02*
X86442857Y-61744819D01*
X86442857Y-61744819D02*
X86347619Y-61744819D01*
X86347619Y-61744819D02*
X86204762Y-61697200D01*
X86204762Y-61697200D02*
X86109524Y-61601961D01*
X86109524Y-61601961D02*
X86061905Y-61506723D01*
X86061905Y-61506723D02*
X86014286Y-61316247D01*
X86014286Y-61316247D02*
X86014286Y-61173390D01*
X86014286Y-61173390D02*
X86061905Y-60982914D01*
X86061905Y-60982914D02*
X86109524Y-60887676D01*
X86109524Y-60887676D02*
X86204762Y-60792438D01*
X86204762Y-60792438D02*
X86347619Y-60744819D01*
X86347619Y-60744819D02*
X86442857Y-60744819D01*
X86442857Y-60744819D02*
X86585714Y-60792438D01*
X86585714Y-60792438D02*
X86633333Y-60840057D01*
X87204762Y-61173390D02*
X87109524Y-61125771D01*
X87109524Y-61125771D02*
X87061905Y-61078152D01*
X87061905Y-61078152D02*
X87014286Y-60982914D01*
X87014286Y-60982914D02*
X87014286Y-60935295D01*
X87014286Y-60935295D02*
X87061905Y-60840057D01*
X87061905Y-60840057D02*
X87109524Y-60792438D01*
X87109524Y-60792438D02*
X87204762Y-60744819D01*
X87204762Y-60744819D02*
X87395238Y-60744819D01*
X87395238Y-60744819D02*
X87490476Y-60792438D01*
X87490476Y-60792438D02*
X87538095Y-60840057D01*
X87538095Y-60840057D02*
X87585714Y-60935295D01*
X87585714Y-60935295D02*
X87585714Y-60982914D01*
X87585714Y-60982914D02*
X87538095Y-61078152D01*
X87538095Y-61078152D02*
X87490476Y-61125771D01*
X87490476Y-61125771D02*
X87395238Y-61173390D01*
X87395238Y-61173390D02*
X87204762Y-61173390D01*
X87204762Y-61173390D02*
X87109524Y-61221009D01*
X87109524Y-61221009D02*
X87061905Y-61268628D01*
X87061905Y-61268628D02*
X87014286Y-61363866D01*
X87014286Y-61363866D02*
X87014286Y-61554342D01*
X87014286Y-61554342D02*
X87061905Y-61649580D01*
X87061905Y-61649580D02*
X87109524Y-61697200D01*
X87109524Y-61697200D02*
X87204762Y-61744819D01*
X87204762Y-61744819D02*
X87395238Y-61744819D01*
X87395238Y-61744819D02*
X87490476Y-61697200D01*
X87490476Y-61697200D02*
X87538095Y-61649580D01*
X87538095Y-61649580D02*
X87585714Y-61554342D01*
X87585714Y-61554342D02*
X87585714Y-61363866D01*
X87585714Y-61363866D02*
X87538095Y-61268628D01*
X87538095Y-61268628D02*
X87490476Y-61221009D01*
X87490476Y-61221009D02*
X87395238Y-61173390D01*
X90916666Y-40064819D02*
X90916666Y-40779104D01*
X90916666Y-40779104D02*
X90869047Y-40921961D01*
X90869047Y-40921961D02*
X90773809Y-41017200D01*
X90773809Y-41017200D02*
X90630952Y-41064819D01*
X90630952Y-41064819D02*
X90535714Y-41064819D01*
X91345238Y-40160057D02*
X91392857Y-40112438D01*
X91392857Y-40112438D02*
X91488095Y-40064819D01*
X91488095Y-40064819D02*
X91726190Y-40064819D01*
X91726190Y-40064819D02*
X91821428Y-40112438D01*
X91821428Y-40112438D02*
X91869047Y-40160057D01*
X91869047Y-40160057D02*
X91916666Y-40255295D01*
X91916666Y-40255295D02*
X91916666Y-40350533D01*
X91916666Y-40350533D02*
X91869047Y-40493390D01*
X91869047Y-40493390D02*
X91297619Y-41064819D01*
X91297619Y-41064819D02*
X91916666Y-41064819D01*
X62643333Y-75264819D02*
X62310000Y-74788628D01*
X62071905Y-75264819D02*
X62071905Y-74264819D01*
X62071905Y-74264819D02*
X62452857Y-74264819D01*
X62452857Y-74264819D02*
X62548095Y-74312438D01*
X62548095Y-74312438D02*
X62595714Y-74360057D01*
X62595714Y-74360057D02*
X62643333Y-74455295D01*
X62643333Y-74455295D02*
X62643333Y-74598152D01*
X62643333Y-74598152D02*
X62595714Y-74693390D01*
X62595714Y-74693390D02*
X62548095Y-74741009D01*
X62548095Y-74741009D02*
X62452857Y-74788628D01*
X62452857Y-74788628D02*
X62071905Y-74788628D01*
X63500476Y-74598152D02*
X63500476Y-75264819D01*
X63262381Y-74217200D02*
X63024286Y-74931485D01*
X63024286Y-74931485D02*
X63643333Y-74931485D01*
X111913333Y-49374819D02*
X111580000Y-48898628D01*
X111341905Y-49374819D02*
X111341905Y-48374819D01*
X111341905Y-48374819D02*
X111722857Y-48374819D01*
X111722857Y-48374819D02*
X111818095Y-48422438D01*
X111818095Y-48422438D02*
X111865714Y-48470057D01*
X111865714Y-48470057D02*
X111913333Y-48565295D01*
X111913333Y-48565295D02*
X111913333Y-48708152D01*
X111913333Y-48708152D02*
X111865714Y-48803390D01*
X111865714Y-48803390D02*
X111818095Y-48851009D01*
X111818095Y-48851009D02*
X111722857Y-48898628D01*
X111722857Y-48898628D02*
X111341905Y-48898628D01*
X112246667Y-48374819D02*
X112865714Y-48374819D01*
X112865714Y-48374819D02*
X112532381Y-48755771D01*
X112532381Y-48755771D02*
X112675238Y-48755771D01*
X112675238Y-48755771D02*
X112770476Y-48803390D01*
X112770476Y-48803390D02*
X112818095Y-48851009D01*
X112818095Y-48851009D02*
X112865714Y-48946247D01*
X112865714Y-48946247D02*
X112865714Y-49184342D01*
X112865714Y-49184342D02*
X112818095Y-49279580D01*
X112818095Y-49279580D02*
X112770476Y-49327200D01*
X112770476Y-49327200D02*
X112675238Y-49374819D01*
X112675238Y-49374819D02*
X112389524Y-49374819D01*
X112389524Y-49374819D02*
X112294286Y-49327200D01*
X112294286Y-49327200D02*
X112246667Y-49279580D01*
X109950074Y-62679065D02*
X109950074Y-63316486D01*
X109950074Y-63316486D02*
X109987570Y-63391476D01*
X109987570Y-63391476D02*
X110025065Y-63428972D01*
X110025065Y-63428972D02*
X110100056Y-63466467D01*
X110100056Y-63466467D02*
X110250037Y-63466467D01*
X110250037Y-63466467D02*
X110325028Y-63428972D01*
X110325028Y-63428972D02*
X110362523Y-63391476D01*
X110362523Y-63391476D02*
X110400018Y-63316486D01*
X110400018Y-63316486D02*
X110400018Y-62679065D01*
X110737476Y-62754056D02*
X110774971Y-62716560D01*
X110774971Y-62716560D02*
X110849962Y-62679065D01*
X110849962Y-62679065D02*
X111037439Y-62679065D01*
X111037439Y-62679065D02*
X111112429Y-62716560D01*
X111112429Y-62716560D02*
X111149925Y-62754056D01*
X111149925Y-62754056D02*
X111187420Y-62829046D01*
X111187420Y-62829046D02*
X111187420Y-62904037D01*
X111187420Y-62904037D02*
X111149925Y-63016523D01*
X111149925Y-63016523D02*
X110699981Y-63466467D01*
X110699981Y-63466467D02*
X111187420Y-63466467D01*
X103053333Y-54894819D02*
X102720000Y-54418628D01*
X102481905Y-54894819D02*
X102481905Y-53894819D01*
X102481905Y-53894819D02*
X102862857Y-53894819D01*
X102862857Y-53894819D02*
X102958095Y-53942438D01*
X102958095Y-53942438D02*
X103005714Y-53990057D01*
X103005714Y-53990057D02*
X103053333Y-54085295D01*
X103053333Y-54085295D02*
X103053333Y-54228152D01*
X103053333Y-54228152D02*
X103005714Y-54323390D01*
X103005714Y-54323390D02*
X102958095Y-54371009D01*
X102958095Y-54371009D02*
X102862857Y-54418628D01*
X102862857Y-54418628D02*
X102481905Y-54418628D01*
X103434286Y-53990057D02*
X103481905Y-53942438D01*
X103481905Y-53942438D02*
X103577143Y-53894819D01*
X103577143Y-53894819D02*
X103815238Y-53894819D01*
X103815238Y-53894819D02*
X103910476Y-53942438D01*
X103910476Y-53942438D02*
X103958095Y-53990057D01*
X103958095Y-53990057D02*
X104005714Y-54085295D01*
X104005714Y-54085295D02*
X104005714Y-54180533D01*
X104005714Y-54180533D02*
X103958095Y-54323390D01*
X103958095Y-54323390D02*
X103386667Y-54894819D01*
X103386667Y-54894819D02*
X104005714Y-54894819D01*
X110640595Y-54894819D02*
X110640595Y-55704342D01*
X110640595Y-55704342D02*
X110688214Y-55799580D01*
X110688214Y-55799580D02*
X110735833Y-55847200D01*
X110735833Y-55847200D02*
X110831071Y-55894819D01*
X110831071Y-55894819D02*
X111021547Y-55894819D01*
X111021547Y-55894819D02*
X111116785Y-55847200D01*
X111116785Y-55847200D02*
X111164404Y-55799580D01*
X111164404Y-55799580D02*
X111212023Y-55704342D01*
X111212023Y-55704342D02*
X111212023Y-54894819D01*
X112164404Y-54894819D02*
X111688214Y-54894819D01*
X111688214Y-54894819D02*
X111640595Y-55371009D01*
X111640595Y-55371009D02*
X111688214Y-55323390D01*
X111688214Y-55323390D02*
X111783452Y-55275771D01*
X111783452Y-55275771D02*
X112021547Y-55275771D01*
X112021547Y-55275771D02*
X112116785Y-55323390D01*
X112116785Y-55323390D02*
X112164404Y-55371009D01*
X112164404Y-55371009D02*
X112212023Y-55466247D01*
X112212023Y-55466247D02*
X112212023Y-55704342D01*
X112212023Y-55704342D02*
X112164404Y-55799580D01*
X112164404Y-55799580D02*
X112116785Y-55847200D01*
X112116785Y-55847200D02*
X112021547Y-55894819D01*
X112021547Y-55894819D02*
X111783452Y-55894819D01*
X111783452Y-55894819D02*
X111688214Y-55847200D01*
X111688214Y-55847200D02*
X111640595Y-55799580D01*
X91933333Y-54269580D02*
X91885714Y-54317200D01*
X91885714Y-54317200D02*
X91742857Y-54364819D01*
X91742857Y-54364819D02*
X91647619Y-54364819D01*
X91647619Y-54364819D02*
X91504762Y-54317200D01*
X91504762Y-54317200D02*
X91409524Y-54221961D01*
X91409524Y-54221961D02*
X91361905Y-54126723D01*
X91361905Y-54126723D02*
X91314286Y-53936247D01*
X91314286Y-53936247D02*
X91314286Y-53793390D01*
X91314286Y-53793390D02*
X91361905Y-53602914D01*
X91361905Y-53602914D02*
X91409524Y-53507676D01*
X91409524Y-53507676D02*
X91504762Y-53412438D01*
X91504762Y-53412438D02*
X91647619Y-53364819D01*
X91647619Y-53364819D02*
X91742857Y-53364819D01*
X91742857Y-53364819D02*
X91885714Y-53412438D01*
X91885714Y-53412438D02*
X91933333Y-53460057D01*
X92790476Y-53364819D02*
X92600000Y-53364819D01*
X92600000Y-53364819D02*
X92504762Y-53412438D01*
X92504762Y-53412438D02*
X92457143Y-53460057D01*
X92457143Y-53460057D02*
X92361905Y-53602914D01*
X92361905Y-53602914D02*
X92314286Y-53793390D01*
X92314286Y-53793390D02*
X92314286Y-54174342D01*
X92314286Y-54174342D02*
X92361905Y-54269580D01*
X92361905Y-54269580D02*
X92409524Y-54317200D01*
X92409524Y-54317200D02*
X92504762Y-54364819D01*
X92504762Y-54364819D02*
X92695238Y-54364819D01*
X92695238Y-54364819D02*
X92790476Y-54317200D01*
X92790476Y-54317200D02*
X92838095Y-54269580D01*
X92838095Y-54269580D02*
X92885714Y-54174342D01*
X92885714Y-54174342D02*
X92885714Y-53936247D01*
X92885714Y-53936247D02*
X92838095Y-53841009D01*
X92838095Y-53841009D02*
X92790476Y-53793390D01*
X92790476Y-53793390D02*
X92695238Y-53745771D01*
X92695238Y-53745771D02*
X92504762Y-53745771D01*
X92504762Y-53745771D02*
X92409524Y-53793390D01*
X92409524Y-53793390D02*
X92361905Y-53841009D01*
X92361905Y-53841009D02*
X92314286Y-53936247D01*
X79723333Y-70639580D02*
X79675714Y-70687200D01*
X79675714Y-70687200D02*
X79532857Y-70734819D01*
X79532857Y-70734819D02*
X79437619Y-70734819D01*
X79437619Y-70734819D02*
X79294762Y-70687200D01*
X79294762Y-70687200D02*
X79199524Y-70591961D01*
X79199524Y-70591961D02*
X79151905Y-70496723D01*
X79151905Y-70496723D02*
X79104286Y-70306247D01*
X79104286Y-70306247D02*
X79104286Y-70163390D01*
X79104286Y-70163390D02*
X79151905Y-69972914D01*
X79151905Y-69972914D02*
X79199524Y-69877676D01*
X79199524Y-69877676D02*
X79294762Y-69782438D01*
X79294762Y-69782438D02*
X79437619Y-69734819D01*
X79437619Y-69734819D02*
X79532857Y-69734819D01*
X79532857Y-69734819D02*
X79675714Y-69782438D01*
X79675714Y-69782438D02*
X79723333Y-69830057D01*
X80056667Y-69734819D02*
X80675714Y-69734819D01*
X80675714Y-69734819D02*
X80342381Y-70115771D01*
X80342381Y-70115771D02*
X80485238Y-70115771D01*
X80485238Y-70115771D02*
X80580476Y-70163390D01*
X80580476Y-70163390D02*
X80628095Y-70211009D01*
X80628095Y-70211009D02*
X80675714Y-70306247D01*
X80675714Y-70306247D02*
X80675714Y-70544342D01*
X80675714Y-70544342D02*
X80628095Y-70639580D01*
X80628095Y-70639580D02*
X80580476Y-70687200D01*
X80580476Y-70687200D02*
X80485238Y-70734819D01*
X80485238Y-70734819D02*
X80199524Y-70734819D01*
X80199524Y-70734819D02*
X80104286Y-70687200D01*
X80104286Y-70687200D02*
X80056667Y-70639580D01*
X104883333Y-50534819D02*
X104550000Y-50058628D01*
X104311905Y-50534819D02*
X104311905Y-49534819D01*
X104311905Y-49534819D02*
X104692857Y-49534819D01*
X104692857Y-49534819D02*
X104788095Y-49582438D01*
X104788095Y-49582438D02*
X104835714Y-49630057D01*
X104835714Y-49630057D02*
X104883333Y-49725295D01*
X104883333Y-49725295D02*
X104883333Y-49868152D01*
X104883333Y-49868152D02*
X104835714Y-49963390D01*
X104835714Y-49963390D02*
X104788095Y-50011009D01*
X104788095Y-50011009D02*
X104692857Y-50058628D01*
X104692857Y-50058628D02*
X104311905Y-50058628D01*
X105835714Y-50534819D02*
X105264286Y-50534819D01*
X105550000Y-50534819D02*
X105550000Y-49534819D01*
X105550000Y-49534819D02*
X105454762Y-49677676D01*
X105454762Y-49677676D02*
X105359524Y-49772914D01*
X105359524Y-49772914D02*
X105264286Y-49820533D01*
X77483333Y-55244819D02*
X77150000Y-54768628D01*
X76911905Y-55244819D02*
X76911905Y-54244819D01*
X76911905Y-54244819D02*
X77292857Y-54244819D01*
X77292857Y-54244819D02*
X77388095Y-54292438D01*
X77388095Y-54292438D02*
X77435714Y-54340057D01*
X77435714Y-54340057D02*
X77483333Y-54435295D01*
X77483333Y-54435295D02*
X77483333Y-54578152D01*
X77483333Y-54578152D02*
X77435714Y-54673390D01*
X77435714Y-54673390D02*
X77388095Y-54721009D01*
X77388095Y-54721009D02*
X77292857Y-54768628D01*
X77292857Y-54768628D02*
X76911905Y-54768628D01*
X78388095Y-54244819D02*
X77911905Y-54244819D01*
X77911905Y-54244819D02*
X77864286Y-54721009D01*
X77864286Y-54721009D02*
X77911905Y-54673390D01*
X77911905Y-54673390D02*
X78007143Y-54625771D01*
X78007143Y-54625771D02*
X78245238Y-54625771D01*
X78245238Y-54625771D02*
X78340476Y-54673390D01*
X78340476Y-54673390D02*
X78388095Y-54721009D01*
X78388095Y-54721009D02*
X78435714Y-54816247D01*
X78435714Y-54816247D02*
X78435714Y-55054342D01*
X78435714Y-55054342D02*
X78388095Y-55149580D01*
X78388095Y-55149580D02*
X78340476Y-55197200D01*
X78340476Y-55197200D02*
X78245238Y-55244819D01*
X78245238Y-55244819D02*
X78007143Y-55244819D01*
X78007143Y-55244819D02*
X77911905Y-55197200D01*
X77911905Y-55197200D02*
X77864286Y-55149580D01*
X102046667Y-40947200D02*
X102189524Y-40994819D01*
X102189524Y-40994819D02*
X102427619Y-40994819D01*
X102427619Y-40994819D02*
X102522857Y-40947200D01*
X102522857Y-40947200D02*
X102570476Y-40899580D01*
X102570476Y-40899580D02*
X102618095Y-40804342D01*
X102618095Y-40804342D02*
X102618095Y-40709104D01*
X102618095Y-40709104D02*
X102570476Y-40613866D01*
X102570476Y-40613866D02*
X102522857Y-40566247D01*
X102522857Y-40566247D02*
X102427619Y-40518628D01*
X102427619Y-40518628D02*
X102237143Y-40471009D01*
X102237143Y-40471009D02*
X102141905Y-40423390D01*
X102141905Y-40423390D02*
X102094286Y-40375771D01*
X102094286Y-40375771D02*
X102046667Y-40280533D01*
X102046667Y-40280533D02*
X102046667Y-40185295D01*
X102046667Y-40185295D02*
X102094286Y-40090057D01*
X102094286Y-40090057D02*
X102141905Y-40042438D01*
X102141905Y-40042438D02*
X102237143Y-39994819D01*
X102237143Y-39994819D02*
X102475238Y-39994819D01*
X102475238Y-39994819D02*
X102618095Y-40042438D01*
X102951429Y-39994819D02*
X103189524Y-40994819D01*
X103189524Y-40994819D02*
X103380000Y-40280533D01*
X103380000Y-40280533D02*
X103570476Y-40994819D01*
X103570476Y-40994819D02*
X103808572Y-39994819D01*
X104713333Y-40994819D02*
X104141905Y-40994819D01*
X104427619Y-40994819D02*
X104427619Y-39994819D01*
X104427619Y-39994819D02*
X104332381Y-40137676D01*
X104332381Y-40137676D02*
X104237143Y-40232914D01*
X104237143Y-40232914D02*
X104141905Y-40280533D01*
X94663333Y-62369580D02*
X94615714Y-62417200D01*
X94615714Y-62417200D02*
X94472857Y-62464819D01*
X94472857Y-62464819D02*
X94377619Y-62464819D01*
X94377619Y-62464819D02*
X94234762Y-62417200D01*
X94234762Y-62417200D02*
X94139524Y-62321961D01*
X94139524Y-62321961D02*
X94091905Y-62226723D01*
X94091905Y-62226723D02*
X94044286Y-62036247D01*
X94044286Y-62036247D02*
X94044286Y-61893390D01*
X94044286Y-61893390D02*
X94091905Y-61702914D01*
X94091905Y-61702914D02*
X94139524Y-61607676D01*
X94139524Y-61607676D02*
X94234762Y-61512438D01*
X94234762Y-61512438D02*
X94377619Y-61464819D01*
X94377619Y-61464819D02*
X94472857Y-61464819D01*
X94472857Y-61464819D02*
X94615714Y-61512438D01*
X94615714Y-61512438D02*
X94663333Y-61560057D01*
X95139524Y-62464819D02*
X95330000Y-62464819D01*
X95330000Y-62464819D02*
X95425238Y-62417200D01*
X95425238Y-62417200D02*
X95472857Y-62369580D01*
X95472857Y-62369580D02*
X95568095Y-62226723D01*
X95568095Y-62226723D02*
X95615714Y-62036247D01*
X95615714Y-62036247D02*
X95615714Y-61655295D01*
X95615714Y-61655295D02*
X95568095Y-61560057D01*
X95568095Y-61560057D02*
X95520476Y-61512438D01*
X95520476Y-61512438D02*
X95425238Y-61464819D01*
X95425238Y-61464819D02*
X95234762Y-61464819D01*
X95234762Y-61464819D02*
X95139524Y-61512438D01*
X95139524Y-61512438D02*
X95091905Y-61560057D01*
X95091905Y-61560057D02*
X95044286Y-61655295D01*
X95044286Y-61655295D02*
X95044286Y-61893390D01*
X95044286Y-61893390D02*
X95091905Y-61988628D01*
X95091905Y-61988628D02*
X95139524Y-62036247D01*
X95139524Y-62036247D02*
X95234762Y-62083866D01*
X95234762Y-62083866D02*
X95425238Y-62083866D01*
X95425238Y-62083866D02*
X95520476Y-62036247D01*
X95520476Y-62036247D02*
X95568095Y-61988628D01*
X95568095Y-61988628D02*
X95615714Y-61893390D01*
X118033333Y-51654819D02*
X117700000Y-51178628D01*
X117461905Y-51654819D02*
X117461905Y-50654819D01*
X117461905Y-50654819D02*
X117842857Y-50654819D01*
X117842857Y-50654819D02*
X117938095Y-50702438D01*
X117938095Y-50702438D02*
X117985714Y-50750057D01*
X117985714Y-50750057D02*
X118033333Y-50845295D01*
X118033333Y-50845295D02*
X118033333Y-50988152D01*
X118033333Y-50988152D02*
X117985714Y-51083390D01*
X117985714Y-51083390D02*
X117938095Y-51131009D01*
X117938095Y-51131009D02*
X117842857Y-51178628D01*
X117842857Y-51178628D02*
X117461905Y-51178628D01*
X118604762Y-51083390D02*
X118509524Y-51035771D01*
X118509524Y-51035771D02*
X118461905Y-50988152D01*
X118461905Y-50988152D02*
X118414286Y-50892914D01*
X118414286Y-50892914D02*
X118414286Y-50845295D01*
X118414286Y-50845295D02*
X118461905Y-50750057D01*
X118461905Y-50750057D02*
X118509524Y-50702438D01*
X118509524Y-50702438D02*
X118604762Y-50654819D01*
X118604762Y-50654819D02*
X118795238Y-50654819D01*
X118795238Y-50654819D02*
X118890476Y-50702438D01*
X118890476Y-50702438D02*
X118938095Y-50750057D01*
X118938095Y-50750057D02*
X118985714Y-50845295D01*
X118985714Y-50845295D02*
X118985714Y-50892914D01*
X118985714Y-50892914D02*
X118938095Y-50988152D01*
X118938095Y-50988152D02*
X118890476Y-51035771D01*
X118890476Y-51035771D02*
X118795238Y-51083390D01*
X118795238Y-51083390D02*
X118604762Y-51083390D01*
X118604762Y-51083390D02*
X118509524Y-51131009D01*
X118509524Y-51131009D02*
X118461905Y-51178628D01*
X118461905Y-51178628D02*
X118414286Y-51273866D01*
X118414286Y-51273866D02*
X118414286Y-51464342D01*
X118414286Y-51464342D02*
X118461905Y-51559580D01*
X118461905Y-51559580D02*
X118509524Y-51607200D01*
X118509524Y-51607200D02*
X118604762Y-51654819D01*
X118604762Y-51654819D02*
X118795238Y-51654819D01*
X118795238Y-51654819D02*
X118890476Y-51607200D01*
X118890476Y-51607200D02*
X118938095Y-51559580D01*
X118938095Y-51559580D02*
X118985714Y-51464342D01*
X118985714Y-51464342D02*
X118985714Y-51273866D01*
X118985714Y-51273866D02*
X118938095Y-51178628D01*
X118938095Y-51178628D02*
X118890476Y-51131009D01*
X118890476Y-51131009D02*
X118795238Y-51083390D01*
X79873333Y-62369580D02*
X79825714Y-62417200D01*
X79825714Y-62417200D02*
X79682857Y-62464819D01*
X79682857Y-62464819D02*
X79587619Y-62464819D01*
X79587619Y-62464819D02*
X79444762Y-62417200D01*
X79444762Y-62417200D02*
X79349524Y-62321961D01*
X79349524Y-62321961D02*
X79301905Y-62226723D01*
X79301905Y-62226723D02*
X79254286Y-62036247D01*
X79254286Y-62036247D02*
X79254286Y-61893390D01*
X79254286Y-61893390D02*
X79301905Y-61702914D01*
X79301905Y-61702914D02*
X79349524Y-61607676D01*
X79349524Y-61607676D02*
X79444762Y-61512438D01*
X79444762Y-61512438D02*
X79587619Y-61464819D01*
X79587619Y-61464819D02*
X79682857Y-61464819D01*
X79682857Y-61464819D02*
X79825714Y-61512438D01*
X79825714Y-61512438D02*
X79873333Y-61560057D01*
X80206667Y-61464819D02*
X80873333Y-61464819D01*
X80873333Y-61464819D02*
X80444762Y-62464819D01*
X92603333Y-71224819D02*
X92270000Y-70748628D01*
X92031905Y-71224819D02*
X92031905Y-70224819D01*
X92031905Y-70224819D02*
X92412857Y-70224819D01*
X92412857Y-70224819D02*
X92508095Y-70272438D01*
X92508095Y-70272438D02*
X92555714Y-70320057D01*
X92555714Y-70320057D02*
X92603333Y-70415295D01*
X92603333Y-70415295D02*
X92603333Y-70558152D01*
X92603333Y-70558152D02*
X92555714Y-70653390D01*
X92555714Y-70653390D02*
X92508095Y-70701009D01*
X92508095Y-70701009D02*
X92412857Y-70748628D01*
X92412857Y-70748628D02*
X92031905Y-70748628D01*
X92936667Y-70224819D02*
X93603333Y-70224819D01*
X93603333Y-70224819D02*
X93174762Y-71224819D01*
X114019405Y-41084819D02*
X114019405Y-40084819D01*
X114019405Y-40084819D02*
X114257500Y-40084819D01*
X114257500Y-40084819D02*
X114400357Y-40132438D01*
X114400357Y-40132438D02*
X114495595Y-40227676D01*
X114495595Y-40227676D02*
X114543214Y-40322914D01*
X114543214Y-40322914D02*
X114590833Y-40513390D01*
X114590833Y-40513390D02*
X114590833Y-40656247D01*
X114590833Y-40656247D02*
X114543214Y-40846723D01*
X114543214Y-40846723D02*
X114495595Y-40941961D01*
X114495595Y-40941961D02*
X114400357Y-41037200D01*
X114400357Y-41037200D02*
X114257500Y-41084819D01*
X114257500Y-41084819D02*
X114019405Y-41084819D01*
X114971786Y-40180057D02*
X115019405Y-40132438D01*
X115019405Y-40132438D02*
X115114643Y-40084819D01*
X115114643Y-40084819D02*
X115352738Y-40084819D01*
X115352738Y-40084819D02*
X115447976Y-40132438D01*
X115447976Y-40132438D02*
X115495595Y-40180057D01*
X115495595Y-40180057D02*
X115543214Y-40275295D01*
X115543214Y-40275295D02*
X115543214Y-40370533D01*
X115543214Y-40370533D02*
X115495595Y-40513390D01*
X115495595Y-40513390D02*
X114924167Y-41084819D01*
X114924167Y-41084819D02*
X115543214Y-41084819D01*
X101143333Y-71324819D02*
X100810000Y-70848628D01*
X100571905Y-71324819D02*
X100571905Y-70324819D01*
X100571905Y-70324819D02*
X100952857Y-70324819D01*
X100952857Y-70324819D02*
X101048095Y-70372438D01*
X101048095Y-70372438D02*
X101095714Y-70420057D01*
X101095714Y-70420057D02*
X101143333Y-70515295D01*
X101143333Y-70515295D02*
X101143333Y-70658152D01*
X101143333Y-70658152D02*
X101095714Y-70753390D01*
X101095714Y-70753390D02*
X101048095Y-70801009D01*
X101048095Y-70801009D02*
X100952857Y-70848628D01*
X100952857Y-70848628D02*
X100571905Y-70848628D01*
X102000476Y-70324819D02*
X101810000Y-70324819D01*
X101810000Y-70324819D02*
X101714762Y-70372438D01*
X101714762Y-70372438D02*
X101667143Y-70420057D01*
X101667143Y-70420057D02*
X101571905Y-70562914D01*
X101571905Y-70562914D02*
X101524286Y-70753390D01*
X101524286Y-70753390D02*
X101524286Y-71134342D01*
X101524286Y-71134342D02*
X101571905Y-71229580D01*
X101571905Y-71229580D02*
X101619524Y-71277200D01*
X101619524Y-71277200D02*
X101714762Y-71324819D01*
X101714762Y-71324819D02*
X101905238Y-71324819D01*
X101905238Y-71324819D02*
X102000476Y-71277200D01*
X102000476Y-71277200D02*
X102048095Y-71229580D01*
X102048095Y-71229580D02*
X102095714Y-71134342D01*
X102095714Y-71134342D02*
X102095714Y-70896247D01*
X102095714Y-70896247D02*
X102048095Y-70801009D01*
X102048095Y-70801009D02*
X102000476Y-70753390D01*
X102000476Y-70753390D02*
X101905238Y-70705771D01*
X101905238Y-70705771D02*
X101714762Y-70705771D01*
X101714762Y-70705771D02*
X101619524Y-70753390D01*
X101619524Y-70753390D02*
X101571905Y-70801009D01*
X101571905Y-70801009D02*
X101524286Y-70896247D01*
X78248095Y-40474819D02*
X78248095Y-41284342D01*
X78248095Y-41284342D02*
X78295714Y-41379580D01*
X78295714Y-41379580D02*
X78343333Y-41427200D01*
X78343333Y-41427200D02*
X78438571Y-41474819D01*
X78438571Y-41474819D02*
X78629047Y-41474819D01*
X78629047Y-41474819D02*
X78724285Y-41427200D01*
X78724285Y-41427200D02*
X78771904Y-41379580D01*
X78771904Y-41379580D02*
X78819523Y-41284342D01*
X78819523Y-41284342D02*
X78819523Y-40474819D01*
X79200476Y-40474819D02*
X79819523Y-40474819D01*
X79819523Y-40474819D02*
X79486190Y-40855771D01*
X79486190Y-40855771D02*
X79629047Y-40855771D01*
X79629047Y-40855771D02*
X79724285Y-40903390D01*
X79724285Y-40903390D02*
X79771904Y-40951009D01*
X79771904Y-40951009D02*
X79819523Y-41046247D01*
X79819523Y-41046247D02*
X79819523Y-41284342D01*
X79819523Y-41284342D02*
X79771904Y-41379580D01*
X79771904Y-41379580D02*
X79724285Y-41427200D01*
X79724285Y-41427200D02*
X79629047Y-41474819D01*
X79629047Y-41474819D02*
X79343333Y-41474819D01*
X79343333Y-41474819D02*
X79248095Y-41427200D01*
X79248095Y-41427200D02*
X79200476Y-41379580D01*
X98053333Y-51879580D02*
X98005714Y-51927200D01*
X98005714Y-51927200D02*
X97862857Y-51974819D01*
X97862857Y-51974819D02*
X97767619Y-51974819D01*
X97767619Y-51974819D02*
X97624762Y-51927200D01*
X97624762Y-51927200D02*
X97529524Y-51831961D01*
X97529524Y-51831961D02*
X97481905Y-51736723D01*
X97481905Y-51736723D02*
X97434286Y-51546247D01*
X97434286Y-51546247D02*
X97434286Y-51403390D01*
X97434286Y-51403390D02*
X97481905Y-51212914D01*
X97481905Y-51212914D02*
X97529524Y-51117676D01*
X97529524Y-51117676D02*
X97624762Y-51022438D01*
X97624762Y-51022438D02*
X97767619Y-50974819D01*
X97767619Y-50974819D02*
X97862857Y-50974819D01*
X97862857Y-50974819D02*
X98005714Y-51022438D01*
X98005714Y-51022438D02*
X98053333Y-51070057D01*
X99005714Y-51974819D02*
X98434286Y-51974819D01*
X98720000Y-51974819D02*
X98720000Y-50974819D01*
X98720000Y-50974819D02*
X98624762Y-51117676D01*
X98624762Y-51117676D02*
X98529524Y-51212914D01*
X98529524Y-51212914D02*
X98434286Y-51260533D01*
X82363333Y-55209580D02*
X82315714Y-55257200D01*
X82315714Y-55257200D02*
X82172857Y-55304819D01*
X82172857Y-55304819D02*
X82077619Y-55304819D01*
X82077619Y-55304819D02*
X81934762Y-55257200D01*
X81934762Y-55257200D02*
X81839524Y-55161961D01*
X81839524Y-55161961D02*
X81791905Y-55066723D01*
X81791905Y-55066723D02*
X81744286Y-54876247D01*
X81744286Y-54876247D02*
X81744286Y-54733390D01*
X81744286Y-54733390D02*
X81791905Y-54542914D01*
X81791905Y-54542914D02*
X81839524Y-54447676D01*
X81839524Y-54447676D02*
X81934762Y-54352438D01*
X81934762Y-54352438D02*
X82077619Y-54304819D01*
X82077619Y-54304819D02*
X82172857Y-54304819D01*
X82172857Y-54304819D02*
X82315714Y-54352438D01*
X82315714Y-54352438D02*
X82363333Y-54400057D01*
X82744286Y-54400057D02*
X82791905Y-54352438D01*
X82791905Y-54352438D02*
X82887143Y-54304819D01*
X82887143Y-54304819D02*
X83125238Y-54304819D01*
X83125238Y-54304819D02*
X83220476Y-54352438D01*
X83220476Y-54352438D02*
X83268095Y-54400057D01*
X83268095Y-54400057D02*
X83315714Y-54495295D01*
X83315714Y-54495295D02*
X83315714Y-54590533D01*
X83315714Y-54590533D02*
X83268095Y-54733390D01*
X83268095Y-54733390D02*
X82696667Y-55304819D01*
X82696667Y-55304819D02*
X83315714Y-55304819D01*
D12*
%TO.C,G\u002A\u002A\u002A*%
G36*
X156614292Y-40184381D02*
G01*
X156623604Y-40201089D01*
X156623686Y-40211468D01*
X156613357Y-40225978D01*
X156595034Y-40233168D01*
X156577936Y-40229795D01*
X156576093Y-40228223D01*
X156569709Y-40210754D01*
X156574158Y-40189841D01*
X156581863Y-40179737D01*
X156598279Y-40175671D01*
X156614292Y-40184381D01*
G37*
G36*
X156601939Y-40014058D02*
G01*
X156658674Y-40021925D01*
X156707632Y-40039111D01*
X156716208Y-40043310D01*
X156762515Y-40070340D01*
X156802549Y-40101920D01*
X156836906Y-40139604D01*
X156866180Y-40184946D01*
X156890966Y-40239499D01*
X156911857Y-40304818D01*
X156929449Y-40382455D01*
X156944336Y-40473965D01*
X156957113Y-40580901D01*
X156968117Y-40701632D01*
X156975441Y-40781394D01*
X156984236Y-40859621D01*
X156994094Y-40933850D01*
X157004604Y-41001615D01*
X157015357Y-41060453D01*
X157025943Y-41107900D01*
X157035952Y-41141490D01*
X157043898Y-41157557D01*
X157051782Y-41159266D01*
X157066764Y-41151355D01*
X157090574Y-41132595D01*
X157124943Y-41101756D01*
X157133046Y-41094209D01*
X157218211Y-41020278D01*
X157299708Y-40962311D01*
X157380574Y-40919007D01*
X157463848Y-40889069D01*
X157552569Y-40871195D01*
X157649776Y-40864089D01*
X157671830Y-40863842D01*
X157728413Y-40865465D01*
X157780408Y-40870113D01*
X157821149Y-40877172D01*
X157823656Y-40877805D01*
X157894207Y-40902882D01*
X157970162Y-40941755D01*
X158048004Y-40991990D01*
X158124217Y-41051152D01*
X158195285Y-41116807D01*
X158241708Y-41167218D01*
X158311753Y-41255034D01*
X158368007Y-41339586D01*
X158413160Y-41426059D01*
X158449904Y-41519638D01*
X158480929Y-41625508D01*
X158482309Y-41630942D01*
X158503486Y-41706977D01*
X158524297Y-41765323D01*
X158545137Y-41806797D01*
X158566400Y-41832215D01*
X158584146Y-41841578D01*
X158601873Y-41843466D01*
X158633789Y-41844479D01*
X158675579Y-41844561D01*
X158722933Y-41843656D01*
X158729654Y-41843450D01*
X158779729Y-41841676D01*
X158816169Y-41839414D01*
X158843852Y-41835645D01*
X158867655Y-41829347D01*
X158892455Y-41819500D01*
X158923130Y-41805084D01*
X158930812Y-41801362D01*
X158973854Y-41779031D01*
X159024202Y-41750707D01*
X159073927Y-41720925D01*
X159097491Y-41705989D01*
X159167258Y-41662501D01*
X159227286Y-41629574D01*
X159281561Y-41605332D01*
X159334064Y-41587898D01*
X159364094Y-41580429D01*
X159427973Y-41570512D01*
X159481786Y-41570904D01*
X159524068Y-41581147D01*
X159553355Y-41600786D01*
X159568182Y-41629363D01*
X159569748Y-41644564D01*
X159567802Y-41658586D01*
X159560907Y-41673652D01*
X159547479Y-41691324D01*
X159525932Y-41713163D01*
X159494680Y-41740730D01*
X159452139Y-41775589D01*
X159396723Y-41819300D01*
X159376143Y-41835312D01*
X159278968Y-41908545D01*
X159190517Y-41970319D01*
X159107170Y-42022983D01*
X159025305Y-42068882D01*
X158981742Y-42091042D01*
X158913634Y-42123408D01*
X158856690Y-42147367D01*
X158806321Y-42164253D01*
X158757939Y-42175397D01*
X158706954Y-42182131D01*
X158656435Y-42185460D01*
X158592885Y-42186179D01*
X158538390Y-42181087D01*
X158488233Y-42168714D01*
X158437703Y-42147590D01*
X158382086Y-42116243D01*
X158333615Y-42084746D01*
X158296373Y-42060239D01*
X158264033Y-42040117D01*
X158239997Y-42026417D01*
X158227666Y-42021178D01*
X158227506Y-42021173D01*
X158221960Y-42025018D01*
X158219605Y-42038532D01*
X158220295Y-42064679D01*
X158223467Y-42102197D01*
X158228898Y-42164534D01*
X158230893Y-42211159D01*
X158228688Y-42244690D01*
X158221518Y-42267742D01*
X158208621Y-42282930D01*
X158189231Y-42292870D01*
X158165855Y-42299431D01*
X158137093Y-42303453D01*
X158096610Y-42305874D01*
X158051143Y-42306608D01*
X158007428Y-42305566D01*
X157972204Y-42302662D01*
X157967779Y-42302014D01*
X157944517Y-42296501D01*
X157914471Y-42287208D01*
X157904825Y-42283818D01*
X157872553Y-42275018D01*
X157847689Y-42276305D01*
X157840006Y-42278761D01*
X157815292Y-42286973D01*
X157790614Y-42292011D01*
X157761484Y-42294179D01*
X157723419Y-42293785D01*
X157671932Y-42291133D01*
X157664975Y-42290699D01*
X157615938Y-42286964D01*
X157581929Y-42282596D01*
X157559453Y-42276919D01*
X157545017Y-42269258D01*
X157542281Y-42266976D01*
X157531632Y-42255379D01*
X157525921Y-42242034D01*
X157525452Y-42223774D01*
X157530529Y-42197431D01*
X157541454Y-42159838D01*
X157557141Y-42111969D01*
X157571108Y-42067531D01*
X157580218Y-42032570D01*
X157583802Y-42009959D01*
X157582606Y-42002962D01*
X157570815Y-41999713D01*
X157545464Y-41996659D01*
X157511513Y-41994092D01*
X157473922Y-41992304D01*
X157437649Y-41991585D01*
X157407655Y-41992227D01*
X157403891Y-41992466D01*
X157398546Y-41995883D01*
X157395285Y-42007028D01*
X157393925Y-42028627D01*
X157394285Y-42063408D01*
X157396025Y-42110484D01*
X157397950Y-42159138D01*
X157398510Y-42192855D01*
X157397308Y-42215191D01*
X157393948Y-42229702D01*
X157388034Y-42239946D01*
X157380697Y-42247960D01*
X157368967Y-42256502D01*
X157351385Y-42263457D01*
X157326204Y-42268973D01*
X157291674Y-42273197D01*
X157246048Y-42276278D01*
X157187578Y-42278364D01*
X157114517Y-42279604D01*
X157025116Y-42280146D01*
X157000691Y-42280189D01*
X156934204Y-42280188D01*
X156883704Y-42279873D01*
X156846656Y-42279017D01*
X156820528Y-42277398D01*
X156802787Y-42274790D01*
X156790898Y-42270970D01*
X156782329Y-42265712D01*
X156776138Y-42260297D01*
X156762479Y-42243902D01*
X156756681Y-42225345D01*
X156759199Y-42201418D01*
X156770486Y-42168916D01*
X156790995Y-42124632D01*
X156797065Y-42112442D01*
X156824726Y-42054791D01*
X156850392Y-41996521D01*
X156872398Y-41941790D01*
X156889078Y-41894753D01*
X156898769Y-41859567D01*
X156899155Y-41857591D01*
X156899079Y-41827822D01*
X156885206Y-41800113D01*
X156851520Y-41744876D01*
X156820325Y-41676920D01*
X156791408Y-41595406D01*
X156764560Y-41499501D01*
X156739567Y-41388368D01*
X156716218Y-41261170D01*
X156694303Y-41117072D01*
X156675574Y-40971784D01*
X156661453Y-40855479D01*
X156649033Y-40756783D01*
X156638193Y-40674877D01*
X156628813Y-40608942D01*
X156620774Y-40558156D01*
X156613955Y-40521701D01*
X156608236Y-40498755D01*
X156605199Y-40490969D01*
X156598670Y-40483427D01*
X156586294Y-40478614D01*
X156564502Y-40475956D01*
X156529725Y-40474885D01*
X156503924Y-40474764D01*
X156451195Y-40473528D01*
X156412452Y-40468931D01*
X156383268Y-40459637D01*
X156359221Y-40444313D01*
X156339015Y-40425016D01*
X156321731Y-40395123D01*
X156312454Y-40354860D01*
X156312271Y-40332820D01*
X156378140Y-40332820D01*
X156385725Y-40362804D01*
X156396945Y-40378757D01*
X156408711Y-40391431D01*
X156420366Y-40399111D01*
X156436551Y-40402865D01*
X156461907Y-40403761D01*
X156501076Y-40402867D01*
X156501615Y-40402851D01*
X156543144Y-40401463D01*
X156581479Y-40399945D01*
X156609958Y-40398566D01*
X156615580Y-40398221D01*
X156639505Y-40399376D01*
X156653434Y-40409671D01*
X156659396Y-40420114D01*
X156667825Y-40441807D01*
X156676295Y-40472832D01*
X156685077Y-40514757D01*
X156694447Y-40569145D01*
X156704678Y-40637563D01*
X156716043Y-40721575D01*
X156726437Y-40803492D01*
X156741841Y-40926618D01*
X156755499Y-41033168D01*
X156767725Y-41124969D01*
X156778834Y-41203849D01*
X156789142Y-41271637D01*
X156798964Y-41330160D01*
X156808616Y-41381247D01*
X156818411Y-41426724D01*
X156828666Y-41468422D01*
X156839696Y-41508166D01*
X156851816Y-41547786D01*
X156858159Y-41567436D01*
X156883960Y-41640223D01*
X156909337Y-41698510D01*
X156936102Y-41746180D01*
X156953085Y-41770639D01*
X156970510Y-41802427D01*
X156976966Y-41832591D01*
X156972437Y-41863927D01*
X156959143Y-41910097D01*
X156937519Y-41969863D01*
X156908003Y-42041986D01*
X156883224Y-42098398D01*
X156865657Y-42137746D01*
X156851281Y-42170520D01*
X156841587Y-42193279D01*
X156838067Y-42202572D01*
X156846685Y-42204141D01*
X156869970Y-42205395D01*
X156904073Y-42206181D01*
X156934017Y-42206372D01*
X157029968Y-42206372D01*
X157062809Y-42074418D01*
X157076215Y-42022946D01*
X157090084Y-41973773D01*
X157102986Y-41931715D01*
X157113494Y-41901588D01*
X157115717Y-41896164D01*
X157127606Y-41870239D01*
X157135559Y-41859018D01*
X157142379Y-41859954D01*
X157148138Y-41866695D01*
X157159572Y-41894179D01*
X157165891Y-41936869D01*
X157166972Y-41992137D01*
X157162688Y-42057355D01*
X157158804Y-42090554D01*
X157153744Y-42132167D01*
X157150363Y-42166898D01*
X157148998Y-42190719D01*
X157149663Y-42199358D01*
X157160434Y-42202756D01*
X157184237Y-42205034D01*
X157215615Y-42206144D01*
X157249113Y-42206037D01*
X157279273Y-42204664D01*
X157300639Y-42201976D01*
X157304936Y-42200751D01*
X157310659Y-42196126D01*
X157314712Y-42185541D01*
X157317368Y-42166278D01*
X157318905Y-42135618D01*
X157319599Y-42090843D01*
X157319725Y-42054907D01*
X157320321Y-42004964D01*
X157321868Y-41961003D01*
X157324161Y-41926634D01*
X157326995Y-41905466D01*
X157328463Y-41901092D01*
X157335790Y-41893879D01*
X157347971Y-41893250D01*
X157370070Y-41899481D01*
X157383099Y-41904056D01*
X157442331Y-41918028D01*
X157505841Y-41920670D01*
X157566807Y-41912204D01*
X157611207Y-41896601D01*
X157644991Y-41881059D01*
X157666361Y-41874205D01*
X157678834Y-41875284D01*
X157684462Y-41880835D01*
X157684745Y-41893740D01*
X157680440Y-41921200D01*
X157672277Y-41960029D01*
X157660991Y-42007045D01*
X157647312Y-42059061D01*
X157631973Y-42112895D01*
X157628223Y-42125411D01*
X157618103Y-42161700D01*
X157611507Y-42191128D01*
X157609325Y-42209388D01*
X157610152Y-42212968D01*
X157621685Y-42216162D01*
X157647284Y-42219380D01*
X157682500Y-42222134D01*
X157703781Y-42223249D01*
X157790943Y-42227061D01*
X157796556Y-42200512D01*
X157807715Y-42149299D01*
X157818046Y-42106376D01*
X157829516Y-42064286D01*
X157844092Y-42015571D01*
X157852420Y-41988763D01*
X157868918Y-41937026D01*
X157881431Y-41900966D01*
X157891071Y-41878457D01*
X157898950Y-41867372D01*
X157906181Y-41865584D01*
X157913876Y-41870967D01*
X157913969Y-41871060D01*
X157919129Y-41884031D01*
X157923623Y-41912488D01*
X157927541Y-41957318D01*
X157930974Y-42019407D01*
X157932285Y-42050640D01*
X157935249Y-42116162D01*
X157938459Y-42164838D01*
X157942092Y-42198342D01*
X157946327Y-42218348D01*
X157950984Y-42226322D01*
X157964892Y-42229385D01*
X157992819Y-42231420D01*
X158030280Y-42232200D01*
X158060378Y-42231863D01*
X158157608Y-42229521D01*
X158152978Y-42150812D01*
X158150777Y-42102772D01*
X158149143Y-42046864D01*
X158148372Y-41993738D01*
X158148348Y-41984284D01*
X158148821Y-41942460D01*
X158150612Y-41915786D01*
X158154276Y-41900906D01*
X158160367Y-41894467D01*
X158163366Y-41893549D01*
X158177062Y-41897365D01*
X158201496Y-41910011D01*
X158232573Y-41929230D01*
X158251335Y-41942013D01*
X158292489Y-41970939D01*
X158336746Y-42001955D01*
X158376042Y-42029411D01*
X158384476Y-42035286D01*
X158459608Y-42077835D01*
X158539602Y-42104040D01*
X158624868Y-42113833D01*
X158715822Y-42107148D01*
X158812875Y-42083917D01*
X158916440Y-42044075D01*
X159026931Y-41987555D01*
X159144760Y-41914290D01*
X159148421Y-41911827D01*
X159204071Y-41873394D01*
X159259681Y-41833338D01*
X159313176Y-41793317D01*
X159362481Y-41754989D01*
X159405524Y-41720013D01*
X159440232Y-41690046D01*
X159464529Y-41666747D01*
X159476343Y-41651774D01*
X159477148Y-41648959D01*
X159468923Y-41643241D01*
X159447310Y-41641667D01*
X159416905Y-41643951D01*
X159382303Y-41649810D01*
X159356135Y-41656447D01*
X159299709Y-41676814D01*
X159237989Y-41706408D01*
X159168057Y-41746725D01*
X159117352Y-41779039D01*
X159044451Y-41822396D01*
X158966183Y-41861118D01*
X158889029Y-41892250D01*
X158828953Y-41910589D01*
X158788550Y-41917765D01*
X158740156Y-41922060D01*
X158688616Y-41923526D01*
X158638779Y-41922213D01*
X158595491Y-41918170D01*
X158563600Y-41911449D01*
X158554573Y-41907735D01*
X158523534Y-41887226D01*
X158496947Y-41860222D01*
X158473517Y-41824338D01*
X158451954Y-41777190D01*
X158430963Y-41716393D01*
X158409315Y-41639804D01*
X158374045Y-41525113D01*
X158331113Y-41423802D01*
X158277975Y-41331483D01*
X158212082Y-41243767D01*
X158130890Y-41156265D01*
X158125940Y-41151382D01*
X158075671Y-41105363D01*
X158020962Y-41061012D01*
X157965748Y-41021120D01*
X157913963Y-40988477D01*
X157869542Y-40965874D01*
X157858141Y-40961433D01*
X157822375Y-40951997D01*
X157774440Y-40943597D01*
X157720673Y-40936914D01*
X157667413Y-40932632D01*
X157620996Y-40931433D01*
X157594104Y-40933014D01*
X157496406Y-40953761D01*
X157399496Y-40990430D01*
X157308632Y-41040967D01*
X157296434Y-41049211D01*
X157276467Y-41064864D01*
X157246791Y-41090432D01*
X157210881Y-41122821D01*
X157172208Y-41158936D01*
X157157535Y-41172970D01*
X157121181Y-41207094D01*
X157088557Y-41236060D01*
X157062346Y-41257612D01*
X157045230Y-41269491D01*
X157040906Y-41271099D01*
X157018402Y-41261918D01*
X156996697Y-41234490D01*
X156975933Y-41189075D01*
X156956249Y-41125933D01*
X156950786Y-41104439D01*
X156941019Y-41062807D01*
X156932773Y-41023484D01*
X156925633Y-40983411D01*
X156919181Y-40939526D01*
X156913001Y-40888770D01*
X156906677Y-40828081D01*
X156899792Y-40754400D01*
X156893674Y-40684909D01*
X156884618Y-40585876D01*
X156875805Y-40503092D01*
X156866752Y-40434299D01*
X156856977Y-40377241D01*
X156845996Y-40329661D01*
X156833327Y-40289301D01*
X156818486Y-40253906D01*
X156800991Y-40221217D01*
X156790991Y-40205017D01*
X156748403Y-40152828D01*
X156697641Y-40114529D01*
X156641428Y-40091767D01*
X156593799Y-40085847D01*
X156564611Y-40088230D01*
X156544615Y-40097989D01*
X156528929Y-40114044D01*
X156510234Y-40142446D01*
X156495425Y-40175215D01*
X156493970Y-40179733D01*
X156481472Y-40207497D01*
X156464600Y-40229236D01*
X156460459Y-40232561D01*
X156415205Y-40268393D01*
X156387866Y-40301581D01*
X156378140Y-40332820D01*
X156312271Y-40332820D01*
X156312089Y-40310966D01*
X156319082Y-40276973D01*
X156333280Y-40250576D01*
X156357499Y-40220926D01*
X156373401Y-40205563D01*
X156408556Y-40167436D01*
X156438991Y-40121432D01*
X156444520Y-40110796D01*
X156470504Y-40067294D01*
X156498654Y-40036599D01*
X156504709Y-40032075D01*
X156524658Y-40020211D01*
X156544377Y-40014143D01*
X156570417Y-40012657D01*
X156601939Y-40014058D01*
G37*
D13*
%TO.C,U4*%
X61910000Y-56830000D02*
X75110000Y-56830000D01*
X61910000Y-62210000D02*
X61910000Y-56830000D01*
X75110000Y-56830000D02*
X75110000Y-62210000D01*
D14*
X61360000Y-63830000D02*
G75*
G02*
X61160000Y-63830000I-100000J0D01*
G01*
X61160000Y-63830000D02*
G75*
G02*
X61360000Y-63830000I100000J0D01*
G01*
D10*
%TO.C,D1*%
X109275000Y-41870000D02*
G75*
G02*
X109175000Y-41870000I-50000J0D01*
G01*
X109175000Y-41870000D02*
G75*
G02*
X109275000Y-41870000I50000J0D01*
G01*
D15*
%TO.C,J1*%
X62690000Y-43550000D02*
X62690000Y-45250000D01*
X72030000Y-43550000D02*
X72030000Y-45250000D01*
%TO.C,C8*%
X86538748Y-62235000D02*
X87061252Y-62235000D01*
X86538748Y-63705000D02*
X87061252Y-63705000D01*
%TO.C,J2*%
X87190000Y-43100000D02*
X88210000Y-43100000D01*
X87190000Y-47350000D02*
X87190000Y-43100000D01*
X88210000Y-43100000D02*
X88210000Y-44700000D01*
X88210000Y-44700000D02*
X89490000Y-44700000D01*
X88910000Y-50920000D02*
X93590000Y-50920000D01*
X89490000Y-44700000D02*
X89490000Y-41810000D01*
X94290000Y-43100000D02*
X94290000Y-44700000D01*
X94290000Y-44700000D02*
X93010000Y-44700000D01*
X95310000Y-43100000D02*
X94290000Y-43100000D01*
X95310000Y-47350000D02*
X95310000Y-43100000D01*
%TO.C,R4*%
X62656359Y-75600000D02*
X62963641Y-75600000D01*
X62656359Y-76360000D02*
X62963641Y-76360000D01*
%TO.C,R3*%
X111926359Y-49710000D02*
X112233641Y-49710000D01*
X111926359Y-50470000D02*
X112233641Y-50470000D01*
D14*
%TO.C,U2*%
X109050000Y-61860000D02*
X109300000Y-61860000D01*
X109050000Y-62110000D02*
X109050000Y-61860000D01*
X109050000Y-64360000D02*
X109050000Y-64110000D01*
X109300000Y-64360000D02*
X109050000Y-64360000D01*
X111800000Y-61860000D02*
X112050000Y-61860000D01*
X112050000Y-61860000D02*
X112050000Y-62110000D01*
X112050000Y-64110000D02*
X112050000Y-64360000D01*
X112050000Y-64360000D02*
X111800000Y-64360000D01*
X108750000Y-61710000D02*
G75*
G02*
X108550000Y-61710000I-100000J0D01*
G01*
X108550000Y-61710000D02*
G75*
G02*
X108750000Y-61710000I100000J0D01*
G01*
D15*
%TO.C,R2*%
X103066359Y-55230000D02*
X103373641Y-55230000D01*
X103066359Y-55990000D02*
X103373641Y-55990000D01*
%TO.C,U5*%
X111402500Y-56280000D02*
X110602500Y-56280000D01*
X111402500Y-56280000D02*
X112202500Y-56280000D01*
X111402500Y-59400000D02*
X110602500Y-59400000D01*
X111402500Y-59400000D02*
X112202500Y-59400000D01*
X110102500Y-56330000D02*
X109862500Y-56000000D01*
X110342500Y-56000000D01*
X110102500Y-56330000D01*
G36*
X110102500Y-56330000D02*
G01*
X109862500Y-56000000D01*
X110342500Y-56000000D01*
X110102500Y-56330000D01*
G37*
%TO.C,C6*%
X91838748Y-54855000D02*
X92361252Y-54855000D01*
X91838748Y-56325000D02*
X92361252Y-56325000D01*
%TO.C,C3*%
X79782164Y-71080000D02*
X79997836Y-71080000D01*
X79782164Y-71800000D02*
X79997836Y-71800000D01*
%TO.C,R1*%
X104896359Y-50870000D02*
X105203641Y-50870000D01*
X104896359Y-51630000D02*
X105203641Y-51630000D01*
%TO.C,R5*%
X77803641Y-53240000D02*
X77496359Y-53240000D01*
X77803641Y-54000000D02*
X77496359Y-54000000D01*
%TO.C,SW1*%
X100660000Y-45180000D02*
X100660000Y-43100000D01*
X101930000Y-41420000D02*
X101440000Y-41910000D01*
X101930000Y-41420000D02*
X104830000Y-41420000D01*
X101930000Y-46860000D02*
X101440000Y-46370000D01*
X101930000Y-46860000D02*
X104830000Y-46860000D01*
X104830000Y-41420000D02*
X105320000Y-41910000D01*
X104830000Y-46860000D02*
X105320000Y-46370000D01*
X106100000Y-45180000D02*
X106100000Y-43100000D01*
%TO.C,C9*%
X94568748Y-62955000D02*
X95091252Y-62955000D01*
X94568748Y-64425000D02*
X95091252Y-64425000D01*
%TO.C,R8*%
X118046359Y-51990000D02*
X118353641Y-51990000D01*
X118046359Y-52750000D02*
X118353641Y-52750000D01*
%TO.C,C7*%
X79778748Y-62955000D02*
X80301252Y-62955000D01*
X79778748Y-64425000D02*
X80301252Y-64425000D01*
%TO.C,R7*%
X92616359Y-71560000D02*
X92923641Y-71560000D01*
X92616359Y-72320000D02*
X92923641Y-72320000D01*
D10*
%TO.C,D2*%
X113717500Y-41800000D02*
G75*
G02*
X113617500Y-41800000I-50000J0D01*
G01*
X113617500Y-41800000D02*
G75*
G02*
X113717500Y-41800000I50000J0D01*
G01*
D15*
%TO.C,R6*%
X101156359Y-71660000D02*
X101463641Y-71660000D01*
X101156359Y-72420000D02*
X101463641Y-72420000D01*
%TO.C,U3*%
X77160000Y-42110000D02*
X80920000Y-42110000D01*
X77160000Y-48930000D02*
X80920000Y-48930000D01*
X80920000Y-42110000D02*
X80920000Y-43370000D01*
X80920000Y-48930000D02*
X80920000Y-47670000D01*
X75880000Y-42210000D02*
X75640000Y-41880000D01*
X76120000Y-41880000D01*
X75880000Y-42210000D01*
G36*
X75880000Y-42210000D02*
G01*
X75640000Y-41880000D01*
X76120000Y-41880000D01*
X75880000Y-42210000D01*
G37*
%TO.C,C1*%
X98112164Y-52320000D02*
X98327836Y-52320000D01*
X98112164Y-53040000D02*
X98327836Y-53040000D01*
%TO.C,C2*%
X82268748Y-55795000D02*
X82791252Y-55795000D01*
X82268748Y-57265000D02*
X82791252Y-57265000D01*
%TD*%
M02*
